<svg xmlns="http://www.w3.org/2000/svg" viewBox="0 0 500 500"><g id="freepik--Floor--inject-68"><path id="freepik--floor--inject-68" d="M88.88,441.3c-89-51.37-89-134.67,0-186s233.25-51.37,322.24,0,89,134.67,0,186S177.87,492.67,88.88,441.3Z" style="fill:#fafafa"></path></g><g id="freepik--Plants--inject-68"><g id="freepik--plants--inject-68"><path d="M482.59,357.49a5.87,5.87,0,0,1,3.07-5.48c2.65-1.55,5.94-1.83,6.21-1.58s-.57,3.4-3.42,5.58A6.89,6.89,0,0,1,482.59,357.49Z" style="fill:#407BFF"></path><path d="M480,364.65a5.92,5.92,0,0,1,5.25-3.48c3.07-.17,6.12,1.08,6.26,1.42s-2.07,2.77-5.61,3.41A7,7,0,0,1,480,364.65Z" style="fill:#407BFF"></path><path d="M474.12,364.82a5.87,5.87,0,0,1-2.53-5.76c.35-3.05,1.81-5.68,2.17-5.75s2.64,2.76,2.89,6A6.18,6.18,0,0,1,474.12,364.82Z" style="fill:#407BFF"></path><path d="M466.59,389.8a24.23,24.23,0,0,1,1.16-8.18,47.35,47.35,0,0,1,2.67-7.22A60.08,60.08,0,0,1,479,360.9a32,32,0,0,1,7.57-7c.06,0,.19.09.13.14a48.16,48.16,0,0,0-6.39,6.85,56,56,0,0,0-4.9,6.8,57.67,57.67,0,0,0-5.83,13,80,80,0,0,0-2,9.19A.52.52,0,0,1,466.59,389.8Z" style="fill:#37474f"></path><path d="M474.32,367.3a18.21,18.21,0,0,1-.81-4.08,10.41,10.41,0,0,1,.25-4c.05-.18.15.09.15.2a30.29,30.29,0,0,0,.26,3.56,13.56,13.56,0,0,0,1,3.63.81.81,0,0,1-.2.93A.45.45,0,0,1,474.32,367.3Z" style="fill:#37474f"></path><path d="M474.69,366.94a15.23,15.23,0,0,1,5.12-2.74,17.49,17.49,0,0,1,2.57-.72,10.1,10.1,0,0,1,3.14-.2c.05,0,.27.13.19.14a27.46,27.46,0,0,0-3,.6,15.62,15.62,0,0,0-2.66.89,25.08,25.08,0,0,0-4.92,2.69C474.78,367.82,474.44,367.16,474.69,366.94Z" style="fill:#37474f"></path><path d="M474.07,374.36a5.89,5.89,0,0,1,4.41-4.49c3-.81,6.2-.22,6.41.09s-1.44,3.13-4.77,4.5A6.92,6.92,0,0,1,474.07,374.36Z" style="fill:#407BFF"></path><path d="M469.38,377.7a15.2,15.2,0,0,1,4.43-3.74,17.15,17.15,0,0,1,2.36-1.25,10.64,10.64,0,0,1,3-.85s.29.08.22.1a29.61,29.61,0,0,0-2.84,1.22,16.28,16.28,0,0,0-2.42,1.43,25.14,25.14,0,0,0-4.25,3.65C469.64,378.55,469.17,378,469.38,377.7Z" style="fill:#37474f"></path></g><g id="freepik--plants--inject-68"><path d="M19.92,354.63a5.87,5.87,0,0,0-3.07-5.48c-2.65-1.55-5.94-1.83-6.21-1.58s.57,3.4,3.42,5.58A6.89,6.89,0,0,0,19.92,354.63Z" style="fill:#407BFF"></path><path d="M22.53,361.79a5.92,5.92,0,0,0-5.25-3.48c-3.07-.17-6.12,1.08-6.26,1.42s2.07,2.77,5.61,3.41A7,7,0,0,0,22.53,361.79Z" style="fill:#407BFF"></path><path d="M28.39,362a5.9,5.9,0,0,0,2.54-5.76c-.36-3.05-1.82-5.68-2.18-5.75s-2.64,2.76-2.89,6A6.18,6.18,0,0,0,28.39,362Z" style="fill:#407BFF"></path><path d="M35.92,386.94a24.23,24.23,0,0,0-1.16-8.18,46.32,46.32,0,0,0-2.67-7.22A60.08,60.08,0,0,0,23.48,358a32,32,0,0,0-7.57-7c-.06,0-.19.09-.13.14A47.58,47.58,0,0,1,22.17,358a56,56,0,0,1,4.9,6.8,57.67,57.67,0,0,1,5.83,13,80,80,0,0,1,2,9.19A.52.52,0,0,0,35.92,386.94Z" style="fill:#37474f"></path><path d="M28.19,364.44a18.21,18.21,0,0,0,.81-4.08,10.41,10.41,0,0,0-.25-4c-.05-.18-.15.09-.15.2a30.29,30.29,0,0,1-.26,3.56,13.2,13.2,0,0,1-1,3.63.81.81,0,0,0,.21.93A.44.44,0,0,0,28.19,364.44Z" style="fill:#37474f"></path><path d="M27.82,364.08a15.23,15.23,0,0,0-5.12-2.74,17.49,17.49,0,0,0-2.57-.72,10.1,10.1,0,0,0-3.14-.2s-.27.13-.19.14a27.46,27.46,0,0,1,3,.6,15.62,15.62,0,0,1,2.66.89,25.08,25.08,0,0,1,4.92,2.69C27.73,365,28.07,364.3,27.82,364.08Z" style="fill:#37474f"></path><path d="M28.44,371.5A5.89,5.89,0,0,0,24,367c-3-.81-6.2-.22-6.41.09s1.44,3.13,4.77,4.5A6.92,6.92,0,0,0,28.44,371.5Z" style="fill:#407BFF"></path><path d="M33.14,374.84a15.38,15.38,0,0,0-4.44-3.74,17.63,17.63,0,0,0-2.35-1.25,10.78,10.78,0,0,0-3-.85s-.29.08-.22.1a29.61,29.61,0,0,1,2.84,1.22,16.28,16.28,0,0,1,2.42,1.43,25.14,25.14,0,0,1,4.25,3.65C32.87,375.69,33.34,375.11,33.14,374.84Z" style="fill:#37474f"></path></g><g id="freepik--plants--inject-68"><path d="M37,337.44a6.38,6.38,0,0,1,0-6.83c1.69-2.87,4.66-4.87,5.05-4.78s1.26,3.52-.29,7.11A7.49,7.49,0,0,1,37,337.44Z" style="fill:#407BFF"></path><path d="M38.35,345.6a6.41,6.41,0,0,1,3.14-6.07c2.82-1.79,6.37-2.21,6.68-2s-.49,3.71-3.51,6.2A7.51,7.51,0,0,1,38.35,345.6Z" style="fill:#407BFF"></path><path d="M32.88,348.87a6.4,6.4,0,0,1-5.45-4.13c-1.28-3.07-1.3-6.34-1-6.6s4,1.22,5.91,4.14C34.47,345.46,33.11,347.93,32.88,348.87Z" style="fill:#407BFF"></path><path d="M39,376.54a26.08,26.08,0,0,1-3.24-8.38,50.06,50.06,0,0,1-1.3-8.25,65.11,65.11,0,0,1,1-17.35,35,35,0,0,1,3.46-10.67c0-.07.22,0,.2.07a51.42,51.42,0,0,0-2.43,9.87,60.23,60.23,0,0,0-1,9A62.87,62.87,0,0,0,37,366.26,87.45,87.45,0,0,0,40,376,.56.56,0,0,1,39,376.54Z" style="fill:#37474f"></path><path d="M34.39,351.11a19.73,19.73,0,0,1-2.94-3.44,11.45,11.45,0,0,1-1.86-3.89c-.05-.2.19,0,.25.11A32.73,32.73,0,0,0,32,347.12a14.44,14.44,0,0,0,2.9,2.89.91.91,0,0,1,.3,1A.47.47,0,0,1,34.39,351.11Z" style="fill:#37474f"></path><path d="M34.55,350.57a16.33,16.33,0,0,1,3.41-5.3,17.09,17.09,0,0,1,2-2,11.34,11.34,0,0,1,2.88-1.86s.32,0,.25,0a29.13,29.13,0,0,0-2.55,2.17,17.33,17.33,0,0,0-2.06,2.25A27.62,27.62,0,0,0,35.28,351C35.1,351.37,34.42,350.92,34.55,350.57Z" style="fill:#37474f"></path><path d="M37.89,357.94a6.41,6.41,0,0,1,1.8-6.59c2.38-2.34,5.77-3.49,6.13-3.31s.29,3.73-2.14,6.79A7.52,7.52,0,0,1,37.89,357.94Z" style="fill:#407BFF"></path><path d="M35.21,363.59a16.53,16.53,0,0,1,2.22-5.89A18.38,18.38,0,0,1,39,355.27a11.39,11.39,0,0,1,2.42-2.41s.32-.08.26,0a31.91,31.91,0,0,0-2,2.65,18.12,18.12,0,0,0-1.53,2.64A27.3,27.3,0,0,0,36,363.84C35.91,364.25,35.16,364,35.21,363.59Z" style="fill:#37474f"></path></g><g id="freepik--plants--inject-68"><path d="M465.48,340.3a6.38,6.38,0,0,0,0-6.83c-1.69-2.87-4.66-4.87-5.05-4.78s-1.26,3.52.29,7.11A7.49,7.49,0,0,0,465.48,340.3Z" style="fill:#407BFF"></path><path d="M464.16,348.46a6.41,6.41,0,0,0-3.14-6.07c-2.82-1.79-6.37-2.21-6.68-2s.49,3.71,3.51,6.2A7.51,7.51,0,0,0,464.16,348.46Z" style="fill:#407BFF"></path><path d="M469.63,351.73a6.4,6.4,0,0,0,5.45-4.13c1.28-3.07,1.3-6.34,1-6.6s-4,1.22-5.91,4.14C468,348.32,469.4,350.79,469.63,351.73Z" style="fill:#407BFF"></path><path d="M463.52,379.4a26.08,26.08,0,0,0,3.24-8.38,50.06,50.06,0,0,0,1.3-8.25,64.72,64.72,0,0,0-1-17.35,35.21,35.21,0,0,0-3.45-10.67c0-.07-.23,0-.21.07a51.42,51.42,0,0,1,2.43,9.87,60.23,60.23,0,0,1,1.05,9,62.87,62.87,0,0,1-1.35,15.39,87.45,87.45,0,0,1-3,9.77A.56.56,0,0,0,463.52,379.4Z" style="fill:#37474f"></path><path d="M468.12,354a19.73,19.73,0,0,0,2.94-3.44,11.45,11.45,0,0,0,1.86-3.89c.05-.2-.19,0-.25.11a32.73,32.73,0,0,1-2.13,3.23,14.18,14.18,0,0,1-2.9,2.89.92.92,0,0,0-.3,1A.47.47,0,0,0,468.12,354Z" style="fill:#37474f"></path><path d="M468,353.43a16.57,16.57,0,0,0-3.4-5.3,18,18,0,0,0-2.05-2,11.34,11.34,0,0,0-2.88-1.86s-.32,0-.25,0a27.74,27.74,0,0,1,2.55,2.17,17.33,17.33,0,0,1,2.06,2.25,27.62,27.62,0,0,1,3.24,5.15C467.41,354.23,468.09,353.78,468,353.43Z" style="fill:#37474f"></path><path d="M464.62,360.8a6.41,6.41,0,0,0-1.8-6.59c-2.38-2.34-5.77-3.49-6.13-3.31s-.29,3.73,2.14,6.79A7.52,7.52,0,0,0,464.62,360.8Z" style="fill:#407BFF"></path><path d="M467.3,366.45a16.53,16.53,0,0,0-2.22-5.89,18.38,18.38,0,0,0-1.58-2.43,11.39,11.39,0,0,0-2.42-2.41s-.32-.08-.26,0a31.91,31.91,0,0,1,2.05,2.65A17.25,17.25,0,0,1,464.4,361a27.3,27.3,0,0,1,2.09,5.71C466.6,367.11,467.35,366.81,467.3,366.45Z" style="fill:#37474f"></path></g></g><g id="freepik--Shadows--inject-68"><ellipse id="freepik--Shadow--inject-68" cx="253.4" cy="424.34" rx="71.35" ry="41.19" style="fill:#e0e0e0"></ellipse><ellipse id="freepik--shadow--inject-68" cx="95.22" cy="390.57" rx="67.16" ry="38.77" style="fill:#e0e0e0"></ellipse><ellipse id="freepik--shadow--inject-68" cx="403.62" cy="389.19" rx="67.16" ry="38.77" style="fill:#e0e0e0"></ellipse></g><g id="freepik--character-3--inject-68"><g id="freepik--Chartacter--inject-68"><g id="freepik--Body--inject-68"><path d="M450.63,395.28c-1-2.73-2.42-13.82-3.53-18.12a35.33,35.33,0,0,1-1-8.64c.17-13.39,1.32-31.6,1.53-42a71.57,71.57,0,0,0-1.18-14.87c-.75-4-1.69-7.46-2.21-9.83,0-8.44-.26-31.13-.34-48.43-.11-20.7-3.73-34.31-6.13-44.48l-58.54,2.72c-.15,3.76-3.86,28.6-4.55,41.66-1.09,20.4-1.69,40.93-1,51.92.63,9.9,1.88,19.76,2.87,29.63q.69,6.75,1.27,13.5c.36,4.18.89,8.47.39,12.67a21.3,21.3,0,0,1-4.42,10.78,23.68,23.68,0,0,1-4.17,4.14c-5.29,4.08-12.09,5.84-17.31,10a4.25,4.25,0,0,0-1.33,1.5,3.23,3.23,0,0,0-.23,1.63,7.07,7.07,0,0,0,3.83,5.38,14.38,14.38,0,0,0,6.66,1.46,31.67,31.67,0,0,0,18-5.22c2-1.32,3.83-2.87,5.77-4.28.87-.63,1.81-1.18,2.67-1.82a7.59,7.59,0,0,1,2.27-1,59.3,59.3,0,0,0,5.6-2.45,12.66,12.66,0,0,0,2.59-1.52,6.37,6.37,0,0,0,2.16-3.56,9.59,9.59,0,0,0,.15-2.51,16.21,16.21,0,0,0-.42-3.18c-.41-1.74-1.18-3.36-1.73-5s-.75-3.11-1.13-4.68c2-11.34,4.24-24.21,5.33-33.07a73.6,73.6,0,0,0,0-19.13l4.78-40c2.76,14,10.27,44.74,10.27,44.74C419.77,324,426.09,350,429,367.85c.19,4.57,1.68,11,1.74,21.58,0,4,0,9.91-.06,12.38-.11,3.68-.46,6.66.7,12.14s7.33,3.66,8.37,2c0,0,7.34-2.87,9.13-6.93C451.11,404.09,451.6,398,450.63,395.28Z" style="fill:#ffa8a7"></path><path d="M375.16,209.74c7,8.32,32.61,9.9,45.18,8.41,13.66-1.63,20.93-7.57,20.93-7.57s1,6.19,2.59,15.35c1,5.39.82,12,1.09,25.69.13,6.54.68,39.22.68,39.22-6.2,6.6-26.16,7.72-33,3.86l-4.79-22.43-3.23,22.39s-3.72,3.36-18.4,1.57c-9.06-1.11-14.05-5.74-14.05-5.74S373,229.28,375.16,209.74Z" style="fill:#37474f"></path><path d="M382.3,233.28c4.59,10.13,20.42,12.53,20.42,12.53l5.11,26.46-3.23,22.39,1.18-26.59-6.32-17.8S383.61,246,382.3,233.28Z" style="fill:#263238"></path></g><path d="M350.25,392.35c-.32,0-.59,3.35,1.25,4.63,2.14,1.49,8.26,3.75,16.05,2.3s11.9-4,14.88-6.63,7.17-6.36,10.67-7.31c3.26-.89,6.75-2.51,7.75-3.53s.57-5.2.57-5.2Z" style="fill:#263238"></path><path d="M397.22,360.67a1.23,1.23,0,0,1,1.25.9c.32,1.14.81,4.49,1.45,6.35.9,2.59,1.74,8,1.45,10.15s-5.58,4-8.94,5.46a44.47,44.47,0,0,0-10.71,7.24c-3.51,3.06-11.08,6.49-16.2,6.79-6.06.36-13-1-14.74-3.5-2.14-3.09-3.8-6.74,4.93-11.17,1.65-.84,7.41-4.51,9.37-5.82,5.29-3.57,9-6.77,11.13-12.61a3.24,3.24,0,0,1,1.18-1.82,3.1,3.1,0,0,1,1.74-.26c1.51.1,7.53.47,8.93,1,1.24.45,3,1,3.06,2.39a4.62,4.62,0,0,1-.24,1.47c-.09.3-.15.69.14.85s.6-.06.82-.27a22,22,0,0,0,2.25-2.85,8.18,8.18,0,0,1,1.33-1.43,15.58,15.58,0,0,0,1.48-1C397.41,362,397.24,361.34,397.22,360.67Z" style="fill:#455a64"></path><path d="M381.72,390.77c1.49-1.3,3.08-2.56,4.68-3.71h0s-10.18,6.63-14.62,4.21c-2.87-1.55-1.7-3.75-1.68-4.43s-10-4.81-12.69-4.92h0c-.72.42-1.32.77-1.7,1-8.73,4.43-7.07,8.08-4.93,11.17,1.74,2.49,6.81,4.2,14.64,3.68C370.54,397.41,378.21,393.83,381.72,390.77Z" style="fill:#37474f"></path><path d="M370.71,384.82c-5.45,2.44-3,3.25-1.42,3.35s10.64-5.59,16.1-10.16c5.69-4.77,9.15-9.8,11.26-11.56.79-.65,1.64-1.45,2.38-2.19-.22-1.12-.41-2.15-.56-2.69a1.23,1.23,0,0,0-1.25-.9c-.14.95-.16,1.37-.68,1.91a9.28,9.28,0,0,1-1.12.94,8.18,8.18,0,0,0-1.33,1.43,22,22,0,0,1-2.25,2.85C387.34,373.84,376.16,382.39,370.71,384.82Z" style="fill:#37474f"></path><path d="M369.63,387.38a.56.56,0,0,0,.35-.13.49.49,0,0,0,0-.73c-1.7-1.68-9.45-5.43-13.53-4.74a.51.51,0,0,0-.45.59.53.53,0,0,0,.63.42c3.82-.64,11.19,3.1,12.53,4.43A.56.56,0,0,0,369.63,387.38Z" style="fill:#263238"></path><path d="M374.32,384.29a.57.57,0,0,0,.35-.14.49.49,0,0,0,0-.72c-1.7-1.68-9.45-5.43-13.53-4.74a.51.51,0,0,0-.45.59.53.53,0,0,0,.63.41c3.82-.62,11.19,3.11,12.53,4.44A.56.56,0,0,0,374.32,384.29Z" style="fill:#263238"></path><path d="M379,381.35a.64.64,0,0,0,.35-.14.5.5,0,0,0,0-.73c-1.7-1.68-9.45-5.43-13.53-4.74a.52.52,0,0,0-.45.59.53.53,0,0,0,.63.42c3.82-.63,11.19,3.1,12.53,4.44A.6.6,0,0,0,379,381.35Z" style="fill:#263238"></path><path d="M383.34,378.05a.52.52,0,0,0,.34-.14.48.48,0,0,0,0-.72c-1.69-1.69-9.46-5.43-13.52-4.75a.53.53,0,0,0-.46.6.54.54,0,0,0,.64.41c3.81-.63,11.19,3.11,12.53,4.44A.56.56,0,0,0,383.34,378.05Z" style="fill:#263238"></path><path d="M387.57,374.76a.57.57,0,0,0,.33-.13.5.5,0,0,0,.05-.73c-2.34-2.39-10.4-5.42-14.48-4.73a.52.52,0,0,0-.45.59.55.55,0,0,0,.64.42c3.67-.62,11.39,2.3,13.46,4.41A.59.59,0,0,0,387.57,374.76Z" style="fill:#263238"></path><path d="M428.16,403.28c.24,5.09,1.09,8.43,3.1,11.32s5.93,3.64,9.92,2.56,9.12-3.68,10.34-8.15,1.06-7.48.25-12.17Z" style="fill:#263238"></path><path d="M446.2,365.21c1.63,0,.49,7.13,1.29,14,.87,7.31,3.33,10.23,4.11,16.22.89,6.85.42,9.95-2.44,14.26s-12.74,8.9-17.46,3.17c-3.84-4.66-3.9-10.06-3.4-17A153.27,153.27,0,0,0,429,378.3c-.22-5.15-1.41-9.8,0-10.45.1.76.19,1.71.29,2.45.08.57.72,3.87,1.1,3.34s.09-1.28.06-1.95A2.15,2.15,0,0,1,431,370a7.63,7.63,0,0,1,2.71-1.13c1.61-.36,4.48-.75,6.12-1,.82-.11,1.64-.18,2.45-.21a7.11,7.11,0,0,1,2.07.15,1.24,1.24,0,0,1,.87.65,1.9,1.9,0,0,1,.07.79,4.72,4.72,0,0,0,.18,1.4c.06.2.21.44.45.38a.42.42,0,0,0,.27-.43C446.18,369.81,446.2,365.21,446.2,365.21Z" style="fill:#455a64"></path><path d="M451.27,393.44c.14,1,1,7.53-1.11,8.82-2.25,1.4-3.37-3.72-3.37-3.72s-5.19-1.13-12.85,2.16c.37,1-.88,4.63-2.95,4s-2.72-8.15-2.73-8.25c-.45,6.62-.29,11.84,3.44,16.37,4.72,5.73,14.61,1.14,17.46-3.17s3.33-7.41,2.44-14.26C451.51,394.7,451.39,394.06,451.27,393.44Z" style="fill:#37474f"></path><path d="M446.18,399c0,2.49,2.83,1.51,3-2s-1.85-11.77-1.71-17.83c.11-8.32.34-13.92-1.29-14l-.09,3.55c0,.62.07,1.34.05,1.88-.06,5.08-.68,14.93-.27,19.55A69.87,69.87,0,0,1,446.18,399Z" style="fill:#37474f"></path><path d="M434.82,400.58a67.94,67.94,0,0,1-1.38-8.67c-.48-4.58-2.58-13.83-3.6-18.8l-.8-5.25c-1.17.37-1,4.43-.58,6.5s.87,4.29,1.33,7.25c1.29,5.86.85,14.49,1.7,17.88S435.31,403,434.82,400.58Z" style="fill:#37474f"></path><path d="M433.77,400.91a1,1,0,0,0,.23-.07,22.48,22.48,0,0,1,12.62-1.78.67.67,0,0,0,.75-.42A.48.48,0,0,0,447,398a23.52,23.52,0,0,0-13.5,1.91.52.52,0,0,0-.27.72A.58.58,0,0,0,433.77,400.91Z" style="fill:#263238"></path><path d="M432.51,395.56l.21-.06a27.82,27.82,0,0,1,14.14-2,.67.67,0,0,0,.73-.44.49.49,0,0,0-.44-.61,28.81,28.81,0,0,0-14.94,2.11.53.53,0,0,0-.3.72A.57.57,0,0,0,432.51,395.56Z" style="fill:#263238"></path><path d="M446.56,388.4a.67.67,0,0,0,.52-.39.48.48,0,0,0-.36-.65c-7.3-1.79-14.61,1.83-14.92,2a.53.53,0,0,0-.27.73.63.63,0,0,0,.82.18c.07,0,7.17-3.54,14-1.87A.53.53,0,0,0,446.56,388.4Z" style="fill:#263238"></path><path d="M446.24,383.57a.64.64,0,0,0,.51-.37.47.47,0,0,0-.35-.66,21.77,21.77,0,0,0-15.21,2,.5.5,0,0,0-.22.73.64.64,0,0,0,.83.14c.07,0,6.71-3.78,14.17-1.81A.82.82,0,0,0,446.24,383.57Z" style="fill:#263238"></path><path d="M445.85,378.15a.64.64,0,0,0,.51-.37.47.47,0,0,0-.34-.66c-7.51-2.09-15,1.94-15.32,2.11a.51.51,0,0,0-.24.73.62.62,0,0,0,.82.16c.08,0,7.32-3.92,14.3-2A.62.62,0,0,0,445.85,378.15Z" style="fill:#263238"></path><path d="M386.26,129.68c-7.19.83-11.11,2.09-14.34,9s-9.46,22.21-11.13,25.93a67.75,67.75,0,0,0-5.17,16.62c-.9,6.27,0,23.61,0,23.61l11.24,12.69,11-40.73,7.22-19.47Z" style="fill:#ffa8a7"></path><path d="M391.4,128c-7.81,1.3-15.17,1.06-19.48,9.34-4.42,8.49-10.82,25.5-10.82,25.5s1.56,4.24,8.6,7.56,12.31,2.3,12.31,2.3L389.56,153Z" style="fill:#37474f"></path><path d="M439.49,129s-14.32-2.36-17.62-2.93c-14.53-1.67-31.87,2.16-31.87,2.16-6.09,1.84-12.63,8.51-16.14,21.11-2.56,9.22-1.09,18.26.69,21.44,0,5.39-.05,9.38.17,19.16s.11,13.71,0,21.79c15.44,15.91,56.42,14.71,67.12.41a162.91,162.91,0,0,1-.52-27.45c1.16-12.36,1.41-13.09,2.86-25.8A59.88,59.88,0,0,0,439.49,129Z" style="fill:#455a64"></path><path d="M423.58,178.57c-3.06,2-7.84,2.27-10.71,2a26.21,26.21,0,0,1-9.23-2.83,25.88,25.88,0,0,0-2.83-1.21c-2.38-.74-4,0-6.08.35a23.34,23.34,0,0,1-9.92-.8,7,7,0,0,1-4.25-2.79A17.73,17.73,0,0,0,393,175.13a9.84,9.84,0,0,0,3.24-1.09,3.51,3.51,0,0,0,1.48-2.39,26.19,26.19,0,0,0,.4-3.08c.22-2.66,1.13-6.68,2.25-5.48a.83.83,0,0,1,.16.47c.2,2.27-.65,6.4.37,9.08s4,3.91,7.24,4.83a31.91,31.91,0,0,0,10.38,1.33C422.12,178.62,425.55,177.28,423.58,178.57Z" style="fill:#37474f;opacity:0.5"></path><g id="freepik--Head--inject-68"><path d="M425.8,80.72s3.45.28,5.69,4.55c1.12,2.14,1.92,6-1.23,17.18a44.47,44.47,0,0,1-5.52,12.27,5.59,5.59,0,0,1-3.28,2.53l.26-8.57.35-6s-4.9-4.4-5.31-8.69c-.52-5.52,1.69-8.64,1.69-8.64Z" style="fill:#37474f"></path><path d="M427,81c-.83-4.83-7.05-10.61-19.08-11.32A23,23,0,0,0,387,80c-3.46,5.61,1.37,10.47,1.37,10.47l30.19-1.34Z" style="fill:#37474f"></path><path d="M429.71,111.24c-4.55,2.13-6.6-1.39-6.6-1.39l0,18.08c-8.75,11.35-32.7,7-23.14-1.49l.05-4.35a27.72,27.72,0,0,1-3.93-.41c-4-.64-7.3-2.7-8.48-7a48.21,48.21,0,0,1-1.19-8.37,31.34,31.34,0,0,1,1.54-12c.81-2.18-.12-5.07.51-7.78.47-2.07,1.4-4.32,3.34-5.25,4.83-2.3,9.27,1.09,16,3.7,2.78,1.08,9.52,1.58,11.3.78-2.35,2.51-2.36,10.51,1.07,13.78a7.72,7.72,0,0,0,1.72,2.22c1.47,1.26,2.68-2,3.92-3.22a5.12,5.12,0,0,1,7.86,1.82A8,8,0,0,1,429.71,111.24Z" style="fill:#ffa8a7"></path><path d="M400,122.09c5.27,0,9.94-.61,13.06-1.87s5.88-5.37,6.8-9.45c0,3.29-1.51,9.11-6.23,11.5s-10.21,2.49-13.65,2.54Z" style="fill:#f28f8f"></path><path d="M418.13,96.23c1.22,2.41-.21,10-2.53,10.9s-4.93-.6-10-2c-3.23-.94-6.54-1.69-10.84-.57-2.37.62-7.57,2.42-8.43,1.23-.25,4.12.93,14,7.28,16,4.52,1.46,14.15,1.76,19.82-1.1s6.74-6.16,7.8-10.67a81.8,81.8,0,0,1,2.93-9.31Z" style="fill:#37474f"></path><path d="M395.12,109.93a6.06,6.06,0,0,1,.16-.61,4.81,4.81,0,0,1,1.1-2,4.35,4.35,0,0,1,2.21-1.11c2.29-.48,4.71-.37,6.49,1.31a5.66,5.66,0,0,1,1.75,4.32c0,1-.79,1.35-1.73,1.61a3.06,3.06,0,0,1-3.09-.6,1.63,1.63,0,0,0-2.06-.23,9,9,0,0,1-1,.74,2.7,2.7,0,0,1-1.52.07,3.83,3.83,0,0,1-1.34-.38,2.3,2.3,0,0,1-1.05-1.69A3.94,3.94,0,0,1,395.12,109.93Z" style="fill:#ffa8a7"></path><path d="M403.56,107.06l-5,1.59a2.61,2.61,0,0,0,3.29,1.76A2.7,2.7,0,0,0,403.56,107.06Z" style="fill:#b16668"></path><path d="M403,107.94a2.81,2.81,0,0,1,.64,0,2.67,2.67,0,0,1-1.85,2.52,2.43,2.43,0,0,1-.84.11A2.39,2.39,0,0,1,403,107.94Z" style="fill:#f28f8f"></path><path d="M406,90.6l4.44,1.87a2.47,2.47,0,0,0-1.32-3.19A2.37,2.37,0,0,0,406,90.6Z" style="fill:#37474f"></path><path d="M389.6,91.32l4.53-1.73a2.34,2.34,0,0,0-3.07-1.4A2.48,2.48,0,0,0,389.6,91.32Z" style="fill:#37474f"></path><path d="M408.92,95.65a2,2,0,1,1-1.88-2A1.93,1.93,0,0,1,408.92,95.65Z" style="fill:#263238"></path><path d="M394.73,94.8a2,2,0,1,1-1.89-2A1.95,1.95,0,0,1,394.73,94.8Z" style="fill:#263238"></path><path d="M401.75,91l-1.68,12.26-6.61-2.44A28.87,28.87,0,0,1,401.75,91Z" style="fill:#f28f8f"></path></g><path d="M397.86,158.51a6.31,6.31,0,0,0-2,5.36,2,2,0,0,0,1.12,1.66h0l3.14,1.16,2.74-7.59-3.1-1.14h0A2,2,0,0,0,397.86,158.51Z" style="fill:#407BFF"></path><path d="M404,160.78c-.31-1.79-1.69-2.3-3.09-1.13a6.29,6.29,0,0,0-2,5.35l1.13,6.49.72-.6a1.34,1.34,0,0,0,.42-1.15l-.52-3a2.41,2.41,0,0,0,1.34-.6A6.31,6.31,0,0,0,404,160.78Z" style="fill:#407BFF"></path><path d="M404,160.78c-.31-1.79-1.69-2.3-3.09-1.13a6.29,6.29,0,0,0-2,5.35l1.13,6.49.72-.6a1.34,1.34,0,0,0,.42-1.15l-.52-3a2.41,2.41,0,0,0,1.34-.6A6.31,6.31,0,0,0,404,160.78Z" style="opacity:0.2"></path><polygon points="397.02 170.35 400.11 171.49 398.98 165 395.89 163.87 397.02 170.35" style="fill:#407BFF"></polygon><polygon points="396.48 165.17 398.58 165.94 398.39 164.84 396.28 164.06 396.48 165.17" style="fill:#37474f"></polygon><polygon points="398.58 165.94 396.48 165.17 396.75 164.94 398.52 165.58 398.58 165.94" style="fill:#263238"></polygon><polygon points="396.76 164.94 396.63 164.19 396.28 164.06 396.48 165.17 396.76 164.94"></polygon><path d="M423.08,124.86v1.44a14.61,14.61,0,0,1,0,7.72,24,24,0,0,1-3,6.7A39.71,39.71,0,0,1,408.85,153a51.19,51.19,0,0,1-8.28,4.92c-.71.34-.14,1.26.49,1,10.55-5,20.29-13.76,23.32-25.44C425.16,130.48,425,127.48,423.08,124.86Z" style="fill:#e0e0e0"></path><path d="M401,158.5a42.13,42.13,0,0,1-2.05-5.91c-.52-2.08-.94-4.2-1.29-6.32a38.13,38.13,0,0,1-.19-12.61,18.07,18.07,0,0,1,2.49-7.22v-1.27a24.08,24.08,0,0,0-2.21,3.68,22.38,22.38,0,0,0-.91,2.88A28.4,28.4,0,0,0,396,138a55.53,55.53,0,0,0,1.71,13.7,26.53,26.53,0,0,0,2.38,7C400.35,159.11,401.23,159.09,401,158.5Z" style="fill:#e0e0e0"></path><polygon points="345.37 171.49 393.62 183.59 411.43 236.98 410.48 238.16 364.53 225.76 344.42 172.67 345.37 171.49" style="fill:#407BFF"></polygon><polygon points="392.67 184.77 410.48 238.16 411.43 236.98 393.62 183.59 392.67 184.77" style="opacity:0.35000000000000003"></polygon><polygon points="344.42 172.67 392.67 184.77 410.48 238.16 364.53 225.76 344.42 172.67" style="opacity:0.25"></polygon><g style="opacity:0.1"><path d="M359.53,182.61s-.25-.8-.55-1.79,2.48-.7,6.24.65l8.67,1.77c3.75,1.35,7.26,2.29,7.57,3.29l.55,1.79Z"></path></g><path d="M356,174.59c-.19-.62.89-.59,2.41-.33l2.78.67s-1.34-2.56,5.19-1.42c7.19,1.25,7.65,4.67,7.65,4.67a29.48,29.48,0,0,0,3.48.91c2.39.54,2.69,1,2.94,1.59l.45,1.13-24.59-6.16S356.19,175.21,356,174.59Z" style="fill:#37474f"></path><path d="M358.82,177.88c2.3.78,3.26,1.18,3.73,2.71.54,1.75.68,2.48.68,2.48l12.86,3.72s-.91-2.56-1.16-3.42,1.4-1,3.64-.22l-.71-2.14-19.95-5.35Z" style="fill:#37474f"></path><path d="M358.89,182.7s-.25-.8-.55-1.8,2.49-.69,6.24.66l8.67,1.77c3.75,1.35,7.26,2.29,7.57,3.28l.55,1.8Z" style="fill:#37474f"></path><path d="M455.53,206.55c6.33-3.28,11-6.74,11.53-10.05,1-6.61-2.68-25-6.8-41.22-2-7.81-2-15.7-7.11-20.71-4.78-4.67-9.34-4.47-13.47-5.06-9.11,12.68-2.81,34.66-2.81,34.66L443.32,188" style="fill:#ffa8a7"></path><path d="M402.23,209.4a36.33,36.33,0,0,1-7,.93c-1,0-4.89-1.77-8-2.57s-5.18,1.05-3.55,2.29a20.49,20.49,0,0,0,2.75,1.86c-1.32,1.3-2.23,2.5.43,4.7-.52,1.38-.1,2.63,1.14,3.83a33.17,33.17,0,0,0,8.88,5.49c1.74.65,10.75.06,11.5-.34,3.22-1.72,6.51-3.18,7.88-3.75,2.37-1,6.66-3.22,9.41-4.11S449.57,210.81,460,204c3.87-2.79,9.26-9.08,5.65-13.35-5.85-4.5-15.43-7.27-22.37-2.66S423.58,201,420,202.59s-8.73,1.55-9.82,1.55a62.27,62.27,0,0,0-9.47.68Z" style="fill:#ffa8a7"></path><path d="M386.39,211.91c1.28.71,2.52,1.48,3.75,2.26.62.38,1.23.79,1.84,1.19a1.55,1.55,0,0,0,.85.36c.34.05.7.08,1.06.11,2.89.2,5.82.2,8.74.42-1.46.15-2.92.23-4.38.27s-2.94,0-4.41-.05c-.37,0-.74-.07-1.12-.13a2.6,2.6,0,0,1-.62-.18,3,3,0,0,1-.51-.33c-.58-.42-1.18-.83-1.75-1.27C388.67,213.71,387.51,212.84,386.39,211.91Z" style="fill:#f28f8f"></path><path d="M386.82,216.61c1.21.81,2.42,1.6,3.66,2.35.63.37,1.24.75,1.88,1.1.31.17.63.36.94.51a4.14,4.14,0,0,0,1,.21c1.42.18,2.89.21,4.35.28s2.92.11,4.38.27a49.93,49.93,0,0,1-8.82.08,3.87,3.87,0,0,1-1.16-.29c-.34-.17-.65-.35-1-.54-.62-.39-1.24-.78-1.84-1.21A28.06,28.06,0,0,1,386.82,216.61Z" style="fill:#f28f8f"></path><path d="M390.33,222.31c1,.39,2,.81,2.95,1.16a16.08,16.08,0,0,0,3,.72,21.69,21.69,0,0,0,3.13.05,18,18,0,0,1,3.2.2l-3.17.35a13,13,0,0,1-3.24,0A13.76,13.76,0,0,1,390.33,222.31Z" style="fill:#f28f8f"></path><path d="M439.49,129c5.06.32,7.68.63,12.55,4s6.21,10.22,7,14.59,4,16.85,4.86,21.61c-3.75,7.41-13.87,9-24.15,7.8-2.31-8.27-5.49-20.36-5.81-27.23S434.51,135.18,439.49,129Z" style="fill:#37474f"></path><path d="M354.8,205.45c-1.46-1.92-1.33-2.18-.58-3.18a6.26,6.26,0,0,1,5-2.63c1.74,0,3.5,0,4.41.39s.17,2.3-2.09,2.84c-3.56.85-3.52,1.8-3.52,1.8a44.54,44.54,0,0,1,4.6-.87,34.34,34.34,0,0,1,5.26.68c1.51.21,1.85,2.11-.7,2.81l2.77.39c1.94.26,2.62,1.26,1.12,2.46a2.83,2.83,0,0,1-1.74.68s2.06,0,2.12.63c.15,1.92-1.11,2.45-5.25,3.7a12.17,12.17,0,0,0-2.61,1.08,10.27,10.27,0,0,1-2.53,1.3,3.18,3.18,0,0,1-2.31-.2,2,2,0,0,1-1-2.34s-2.27.09-2.43-1.28a6.88,6.88,0,0,1,.49-3,2.42,2.42,0,0,1-1.29-2.26,3.93,3.93,0,0,1,.78-2.43Z" style="fill:#ffa8a7"></path><path d="M367.21,207.29a12.88,12.88,0,0,0-2.51-.22,8,8,0,0,0-2.42.79,31,31,0,0,0-4.34,2.37,29.58,29.58,0,0,0,4.64-1.71,12.92,12.92,0,0,1,2.2-.9C365.53,207.49,366.4,207.46,367.21,207.29Z" style="fill:#f28f8f"></path><path d="M369.36,210.82a5.68,5.68,0,0,0-2.72,0,16.09,16.09,0,0,0-2.57.84,25.91,25.91,0,0,0-4.68,2.56,51,51,0,0,0,5-1.9A14.34,14.34,0,0,1,369.36,210.82Z" style="fill:#f28f8f"></path></g></g><g id="freepik--character-2--inject-68"><g id="freepik--Character--inject-68"><path d="M204.35,190.5l-1.79,2.38a14.27,14.27,0,0,0,6.08,9.74,19,19,0,0,0,11.58,3.24l3.79-6.69-19.56-9"></path><path d="M234.25,158.44c-8.23.67-12.37,1.79-17.15,8.48s-8.45,14.82-10.2,17.36-4.3,4-2.55,6.22,3.83,9.24,12.75,11.47,9.56-1.75,10.2-4.3,6.95-15.7,6.95-15.7Z" style="fill:#407BFF"></path><path d="M234.25,158.44c-8.23.67-12.37,1.79-17.15,8.48s-8.45,14.82-10.2,17.36-4.3,4-2.55,6.22,3.83,9.24,12.75,11.47,9.56-1.75,10.2-4.3,6.95-15.7,6.95-15.7Z" style="opacity:0.2"></path><circle cx="209.12" cy="219.84" r="27.74" style="fill:#407BFF"></circle><circle cx="209.12" cy="219.84" r="27.74" style="fill:#fff;opacity:0.5"></circle><path d="M181.85,222.72a8.92,8.92,0,0,1,4.31-4.07,5,5,0,0,1,1.63-.34,36.38,36.38,0,0,1,2.47-7.72c-.48-.5-1-1-1.43-1.52a47.89,47.89,0,0,1-3.23-3.93c.21-.32.41-.65.63-1,1,1.19,1.87,2.41,2.88,3.56.53.61,1.08,1.2,1.64,1.79.29-.58.6-1.15.94-1.71A31.44,31.44,0,0,1,196.2,202a8.13,8.13,0,0,1-1.65-5.75c.43-.27.86-.52,1.31-.76a7.51,7.51,0,0,0,1.15,5.71,37.61,37.61,0,0,1,4.58-3.77,41.65,41.65,0,0,1,10.3-5.18c.7.07,1.39.17,2.08.29a41.62,41.62,0,0,0-16.2,9.48,4.61,4.61,0,0,0,1.45.83c2.19.77,4.79.15,7-.11,2.45-.28,4.9-.58,7.36-.82a61.93,61.93,0,0,1,14.4,0c.86.12,1.76.28,2.66.47q.45.55.87,1.14a30.68,30.68,0,0,0-4-.73,69.23,69.23,0,0,0-15.09.28c-2.5.26-5,.57-7.48.84-2.2.25-4.61.65-6.7-.31a5.39,5.39,0,0,1-1.23-.79,31.22,31.22,0,0,0-3.1,3.77,27.75,27.75,0,0,0-2.24,3.91c.59.6,1.18,1.19,1.79,1.76a66.37,66.37,0,0,0,33.11,16.86,63.58,63.58,0,0,0,8.35,1c-.15.38-.31.75-.47,1.12-2.11-.13-4.22-.38-6.29-.7a66.78,66.78,0,0,1-12.44-3.25,67.65,67.65,0,0,1-21.79-13.05c-.95-.84-1.86-1.72-2.75-2.62a37.7,37.7,0,0,0-2.12,6.87c2.77.69,4.7,3.93,6,6.37,4.42,8.09,8.22,17.68,16.61,22.52l.21.12c-.6.05-1.2.09-1.81.11A27.43,27.43,0,0,1,204,242a65.56,65.56,0,0,1-7.41-12c-1.13-2.17-2.23-4.37-3.48-6.48-1-1.64-2.23-3.48-4.13-4.1l-.1,0c-.14.73-.28,1.46-.39,2.19-.85,5.44-1.11,11.11.23,16.49.07.27.16.53.24.79a26.56,26.56,0,0,1-1.76-2.06,41.74,41.74,0,0,1-.27-13c.18-1.52.41-3,.7-4.55-1.83.11-3.4,1.62-4.44,3.09a17.89,17.89,0,0,0-1.35,2.33c-.09-.47-.16-1-.22-1.43C181.68,223.05,181.75,222.88,181.85,222.72Z" style="fill:#455a64"></path><path d="M181.2,226.79c-1.65-1.72-1.55-2-.95-3.08a6.12,6.12,0,0,1,4.56-3.23c1.7-.19,3.4-.46,4.33-.14s.46,2.27-1.67,3.07c-3.36,1.28-3.2,2.21-3.2,2.21s3.09-1.16,4.36-1.42a32.47,32.47,0,0,1,5.2.05c1.49,0,2,1.86-.34,2.87l2.74,0c1.92,0,2.7.94,1.4,2.31a2.73,2.73,0,0,1-1.61.88s2-.28,2.13.38c.39,1.88-.77,2.56-4.64,4.31-3.3,1.48-4.21,3-3.64,4.36l.42.81s-1.68-.68-3.2-1.44c-1.11-.55-2.08-1.22-1.85-2.86,0,0-2.19.35-2.52-1a7,7,0,0,1,.12-3,2.43,2.43,0,0,1-1.54-2.08,4,4,0,0,1,.46-2.51Z" style="fill:#c8856a"></path><path d="M193.49,227.12a12.12,12.12,0,0,0-2.47.08,8.09,8.09,0,0,0-2.25,1.08,29.45,29.45,0,0,0-3.92,2.88,29.78,29.78,0,0,0,4.3-2.26,12.29,12.29,0,0,1,2-1.16C191.88,227.51,192.73,227.38,193.49,227.12Z" style="fill:#af6152"></path><path d="M196,230.35a5.46,5.46,0,0,0-2.65.3A13.84,13.84,0,0,0,191,231.8a24.71,24.71,0,0,0-4.23,3.1,49.27,49.27,0,0,0,4.59-2.48A13.94,13.94,0,0,1,196,230.35Z" style="fill:#af6152"></path><g id="freepik--Bottom--inject-68"><path d="M205,412.94a52.27,52.27,0,0,0,11.21-9.81c1.68-2.07,4-4.9,4.64-7.53a30.54,30.54,0,0,0,.24-10.49c-2.76-24.38-6-48.05-7.34-61.56-.41-4.05-.66-24.59,0-44.72.73-22.76,5.47-45.37,6.66-49.49C222.72,241.18,242,240.6,267.3,228c4.12-2.05,9.14-3.8,13.35-3.95,4.66,7.33,7.75,13.14,8.72,22.61a259.8,259.8,0,0,1,1.16,30c-.55,31.28-.42,33.72-.2,40.07a117.58,117.58,0,0,0,1.51,17.44c.73,5.2,3,10.18,3.71,26.12.45,9.47-.16,19.62,1.32,34.22.46,3.45,1.33,4.62,1.88,8,1.22,7.33,3.35,14.42,4.7,17.28a27,27,0,0,1,2.2,5,29.65,29.65,0,0,1,.87,6,11.76,11.76,0,0,1-1.89,7,14,14,0,0,1-2.45,2.53,17.76,17.76,0,0,1-7.52,4.05,10,10,0,0,1-5.32-.28,5.58,5.58,0,0,1-3.75-3.81c-1.25-3.26-2.56-6.84-2.78-10.35-.17-2.71-.27-9.41-.92-13.74A149,149,0,0,0,276.38,392c-5-16.6-9.17-27-13.24-40.34a549.25,549.25,0,0,1-13.27-56.54L244,328.32a60.11,60.11,0,0,1,2.25,20.77c-.81,9.75-4.19,25.15-5.19,37.71-.41,5,1.16,9.52,2,14.45.46,2.76.68,5.12-1.36,7.22a17.61,17.61,0,0,1-7.41,4.69,18.42,18.42,0,0,0-6,3.1,46.27,46.27,0,0,0-4.67,4.62,20.3,20.3,0,0,1-23.47,3.49c-1.37-.71-2.77-1.73-3.06-3.24a4,4,0,0,1,1-3.2,12.22,12.22,0,0,1,2.69-2.16Q202.88,414.39,205,412.94Z" style="fill:#c8856a"></path><path d="M249.87,295.14l-4.42-33.4s-15.48-6.4-19-13.33c0,0,.29,7.69,14.41,16.3l5.94,30.5L244,328.33Z" style="fill:#af6152"></path><path d="M220.39,229.34a38.39,38.39,0,0,0-1,5c1.28,10.3,11.36,23.88,26,27.38.14-11.7,10.35-27.11,22.82-30.92a16.9,16.9,0,0,1,19.13,6.43c-1-4.08-5.56-11.59-6.75-13.2,0,0-8.87-.25-22.17,6.46-8.54,4.3-21.12,6-28.77,4.56S220.39,229.34,220.39,229.34Z" style="fill:#455a64"></path></g><path d="M282.5,223.63c3.44,7,9.21,12.12,8.95,31s0,52.24,0,52.24-6,7.64-20.11,9.3-18.42-2.49-18.42-2.49l-2.43-14.16-2.07,11.85a52.85,52.85,0,0,1-17.84,1.89c-10.16-.62-14.84-4.16-18.12-8.44,0-16,1.31-43.12,3.1-56.85,1.4-10.72,3.84-21.08,3.84-21.08Z" style="fill:#455a64"></path><path d="M245.39,312.19,247.45,299,242,267.59c-5.8-2.9-14.73-6.28-16.67-15.76,5.32,8.87,19.5,11.72,19.5,11.72s3.93,27,5.63,36l-2.07,11.85S247.31,311.77,245.39,312.19Z" style="fill:#37474f"></path><g id="freepik--Top--inject-68"><path d="M225.69,210c0,5.18-9.54,13.8-6.29,18.5h0c.41.84,3.65,4.7,10.31,6.59,12.59,3.59,27.09,3.49,38.6-1,13.71-5.35,14.19-10.43,14.19-10.43,2.26-2-2.67-6.15-4.44-8.69a11.29,11.29,0,0,1-2.32-6.56c0-7.6,4.46-12.75,8.22-24.73s-.71-24.29-.71-24.29-6.87-1.65-12.79-3.8-23.08-2.88-23.08-2.88c0,2.27-1,2.83-3.51,3.34-2.77.59-9.62,2.42-9.62,2.42s-14.73,17.11-16.48,25.71,5.45,14.67,5.45,14.67a17.82,17.82,0,0,0,.43,4.25C224.16,205.2,225.52,208.44,225.69,210Z" style="fill:#407BFF"></path><path d="M239.39,178.45a41.41,41.41,0,0,1,3.15-7c.05-.09.12,0,.09.11a62.24,62.24,0,0,0-2.83,6.81c-.82,2.37-1.3,4.82-2,7.23-.05.14-.17.07-.16-.05A27.82,27.82,0,0,1,239.39,178.45Z" style="opacity:0.2"></path><g id="freepik--head--inject-68"><path d="M288,97.63c1,.82,2.41,1.32,3.47,2.14a6.23,6.23,0,0,1,1.65,7.61,9.1,9.1,0,0,0-1.25,2.49c-.35,1.81,1.19,3.37,1.81,5.11a5.45,5.45,0,0,1-2.16,6.24,13.36,13.36,0,0,0-2.13,1.28c-1.31,1.22-.64,3-1.33,4.44s-2.47,2-4.07,2a3.3,3.3,0,0,0-.28-3.8c.7.82-1.09,2.79-1.65,3.17-1.22.83-2.75.12-3.78,1-.37.3-.61.73-1,1-1.43,1.3-3.92,0-4.54-1.81-.5-1.46-.32-3.28-1.49-4.29a6.9,6.9,0,0,0-1.54-.83,7,7,0,0,1-3.84-6.24c0-1.14.28-2.46-.51-3.29-.39-.42-1-.61-1.38-1-1.25-1.29-.06-3.83-1.37-5.06-.7-.65-1.31-.26-2.07-.47a3,3,0,0,1-1.51-1.46,5.06,5.06,0,0,1-.35-4.48c.42-1,1.13-1.75,1.57-2.7.84-1.79.66-4,1.71-5.67a5.6,5.6,0,0,1,3.61-2.35c2-.4,3.57.16,5.43.52s3.83-.79,5.59-1.34a9.12,9.12,0,0,1,5.47-.11A6.16,6.16,0,0,1,286,93.38a18.31,18.31,0,0,0,1,3.13A4.13,4.13,0,0,0,288,97.63Z" style="fill:#263238"></path><path d="M276.28,104.27a13,13,0,0,1,4.06,7.08,3.59,3.59,0,0,1-.08,2.2,2.71,2.71,0,0,1-2.88,1.36,5.42,5.42,0,0,1-2.91-1.69,11.23,11.23,0,0,1-3.15-6.48c-.13-1.13,0-2.91,1.14-3.56C273.74,102.43,275.35,103.44,276.28,104.27Z" style="fill:#407BFF"></path><path d="M267.16,145.92c.12-4.54,6.68-11.76,10.62-20.28,1.87-4,4.39-13.71-2.55-17.26-.74-4.17-3.89-7.2-7.56-9a26,26,0,0,0-6.19-2.06c-2.26-.46-4.41-.47-6.56-1.29a4.59,4.59,0,0,0-3.63.17,9.23,9.23,0,0,1-1.54.77,6.29,6.29,0,0,1-2.4-.11,2.59,2.59,0,0,0-2.27.53c-.26.27-.4.63-.67.89-.52.5-1.34.48-2,.64a3.8,3.8,0,0,0-2.3,1.57,13.35,13.35,0,0,1-.85,1.35c-.9,1-2.6,1.15-3.32,2.3-.51.81-.37,1.86-.73,2.74s-.92,1.29-1.25,2a5.64,5.64,0,0,0-.38,1.73c-.22,1.91-.41,4,.49,5.66.56,1,.67,2.23,1.18,3.32,1.63,3.49,5.69,5.74,8.67,8.07l10.2,8Z" style="fill:#263238"></path><path d="M276.29,128.65c-2.47-3.13-6-2.42-7.69.22s-4.43,1.62-3.08-2.43c-1.81-.93-4.73-1.79-2.79-9.25a8.65,8.65,0,0,0-2.11-7.06c-2.95-2.81-9.89-2.85-13.36.4-1.91-3.21-6.28-3.63-9.86-1-1.73,1.26-3.84,3.47-3.65,10.22.15,2-.59,4.54-.72,8.35-.51,14.39,3.38,17.53,7.21,19.37,2.29,1.09,3.56,1.3,7.27,1.39l-.12,4.17a2.83,2.83,0,0,1-2.18,2.67h0A63.73,63.73,0,0,0,243,170.37c19.28-8.67,27.5-15,27.51-15s-3.38-1.27-3.16-6.35c.2-4.37.28-9.45.28-9.45a4.58,4.58,0,0,0,4.9.15C276.42,137.58,278.76,131.78,276.29,128.65Z" style="fill:#c8856a"></path><polygon points="247.33 119.96 245.98 131.78 239.67 129.52 247.33 119.96" style="fill:#af6152"></polygon><path d="M247.51,148.84c4.63-.1,14.58-2.28,17.2-8.33,0,0-.51,4.36-6.29,7.56-4.57,2.51-11,2.85-11,2.85Z" style="fill:#af6152"></path><path d="M251.83,123.49a2,2,0,1,0,1.93-2.16A2,2,0,0,0,251.83,123.49Z" style="fill:#263238"></path><path d="M236.9,122.94a2,2,0,1,0,1.62-2.4A2.05,2.05,0,0,0,236.9,122.94Z" style="fill:#263238"></path><path d="M237.71,115.71a2.93,2.93,0,0,1,3.45,2.28l-5.73,1.17A2.92,2.92,0,0,1,237.71,115.71Z" style="fill:#263238"></path><path d="M256.49,115.93a2.93,2.93,0,0,1,1.41,3.89l-5.3-2.48A2.93,2.93,0,0,1,256.49,115.93Z" style="fill:#263238"></path><path d="M245.22,136.28c.8-.09,2.58-.5,2.47-1.23a5,5,0,0,1,.12-2.39c.07-.17.18.06.18.17a5.08,5.08,0,0,0,4.57,5.14s.06.08,0,.09a4.33,4.33,0,0,1-3.24-.87c-.48-.39-.78-.8-1.48-.73-1.43.19-3.61.72-4.62-.53A4.49,4.49,0,0,0,245.22,136.28Z" style="fill:#af6152"></path><path d="M236.91,141.77a5.17,5.17,0,0,1,2.23-4.11,1.63,1.63,0,0,1,1.62-.22h0l2.41,1.31L240,144.55l-2.38-1.29h0A1.63,1.63,0,0,1,236.91,141.77Z" style="fill:#455a64"></path><path d="M241.51,138.94a5.17,5.17,0,0,0-2.23,4.11c0,1.49,1.1,2.07,2.37,1.29a5.17,5.17,0,0,0,2.23-4.11C243.84,138.74,242.78,138.17,241.51,138.94Z" style="fill:#37474f"></path><path d="M246.11,136.12l0,.78a1.11,1.11,0,0,1-.48.87l-4.11,2.52,0-1.35Z" style="fill:#37474f"></path><polygon points="243.73 134.84 246.1 136.13 241.51 138.94 239.14 137.66 243.73 134.84" style="fill:#455a64"></polygon><path d="M236.08,141.8l-.88,0-1.94,0c-.71,0-1.41,0-1.94,0l-.36,0a.7.7,0,0,0-.27,0,.5.5,0,0,0-.24.24v.13a.55.55,0,0,0,.25.22,1.26,1.26,0,0,0,.28,0h.36c.53,0,1.23-.12,1.93-.2l1.92-.23.88-.12Z" style="fill:#e0e0e0"></path><path d="M237.12,144l-.72.51-1.56,1.16c-.56.42-1.14.83-1.54,1.17l-.27.24a1.7,1.7,0,0,0-.19.2.54.54,0,0,0,0,.33l.09.1a.49.49,0,0,0,.33,0,1.06,1.06,0,0,0,.23-.16l.28-.23c.4-.34.89-.85,1.4-1.34l1.38-1.36.61-.63Z" style="fill:#e0e0e0"></path><path d="M238.9,145.49l-.29.84-.6,1.84c-.22.67-.45,1.34-.57,1.85l-.09.35a1.7,1.7,0,0,0,0,.28.56.56,0,0,0,.16.29l.14,0a.52.52,0,0,0,.28-.18,2.56,2.56,0,0,0,.09-.26c0-.1.06-.22.09-.35.13-.51.24-1.21.36-1.9s.25-1.39.34-1.91l.14-.87Z" style="fill:#e0e0e0"></path><g style="opacity:0.2"><path d="M236.08,141.8l-.88,0-1.94,0c-.71,0-1.41,0-1.94,0l-.36,0a.7.7,0,0,0-.27,0,.5.5,0,0,0-.24.24v.13a.55.55,0,0,0,.25.22,1.26,1.26,0,0,0,.28,0h.36c.53,0,1.23-.12,1.93-.2l1.92-.23.88-.12Z"></path><path d="M237.12,144l-.72.51-1.56,1.16c-.56.42-1.14.83-1.54,1.17l-.27.24a1.7,1.7,0,0,0-.19.2.54.54,0,0,0,0,.33l.09.1a.49.49,0,0,0,.33,0,1.06,1.06,0,0,0,.23-.16l.28-.23c.4-.34.89-.85,1.4-1.34l1.38-1.36.61-.63Z"></path><path d="M238.9,145.49l-.29.84-.6,1.84c-.22.67-.45,1.34-.57,1.85l-.09.35a1.7,1.7,0,0,0,0,.28.56.56,0,0,0,.16.29l.14,0a.52.52,0,0,0,.28-.18,2.56,2.56,0,0,0,.09-.26c0-.1.06-.22.09-.35.13-.51.24-1.21.36-1.9s.25-1.39.34-1.91l.14-.87Z"></path></g><polygon points="240.25 137.31 241.87 138.19 241.08 138.67 239.47 137.79 240.25 137.31" style="fill:#37474f"></polygon><polygon points="241.87 138.19 240.25 137.31 240.26 137.61 241.61 138.34 241.87 138.19" style="fill:#263238"></polygon><polygon points="240.26 137.61 239.73 137.94 239.47 137.79 240.25 137.31 240.26 137.61"></polygon></g><g id="freepik--Arm--inject-68"><path d="M293.67,254.55c1.32-1.43,3-2.69,3.55-4.64a3.33,3.33,0,0,0-.47-3,1.44,1.44,0,0,1-.35-.54,1.23,1.23,0,0,1,0-.54,3.59,3.59,0,0,0-.14-2.2,2.28,2.28,0,0,0-1.41-1.2,5.3,5.3,0,0,0,0-3.34c-.44-1.26-1.74-2.27-2.6-.86a11.58,11.58,0,0,0-1,2.22,25.93,25.93,0,0,0-1.27,5.92c-.21,2.09-.71,8,2.54,8.31C292.77,254.74,293.49,254.75,293.67,254.55Z" style="fill:#af6152"></path><path d="M283.48,160.48c8.6,0,12.26,6.33,18.31,15.28,7,10.36,15.66,23.24,18,28.23,2.88,6.18,3.49,8.55-3.12,15.13-3.41,3.39-8.17,7.43-13,12-3.82,3.6-8.42,7.42-12.11,11.15a3.34,3.34,0,0,0-1.15,3.41,22,22,0,0,1,.65,2.51,20.81,20.81,0,0,1-.26,3.32,2.91,2.91,0,0,0,1.31,2.86,3.26,3.26,0,0,0,1.58.18,11.62,11.62,0,0,1-3.05,1.67,4.67,4.67,0,0,1-3.41-.12c-1-.49-1.78-1.45-2.86-1.78-.59-.17-1.21-.14-1.8-.3a3,3,0,0,1-1.55-1c-.62-.77-.87-1.89-1.74-2.37a12.52,12.52,0,0,0-1.35-.44,3,3,0,0,1-1.68-2.23,8.09,8.09,0,0,1,.07-2.9,71.23,71.23,0,0,1,1.57-7.66,7.58,7.58,0,0,1,1.24-2.35c.59-.85,1.14-1.72,1.78-2.52,4.29-5.48,17.91-23.74,17.91-23.74l-19.28-21S275.38,178.31,283.48,160.48Z" style="fill:#c8856a"></path><path d="M293.67,254.55c-2.17,1.64-5.38,2.82-7.59.63a5,5,0,0,0-1.88-1.06c-1.41-.16-2.78-.39-3.42-1.8a4.61,4.61,0,0,0-1.28-1.78c-.69-.45-1.44-.38-1.93-.79a3,3,0,0,1-1-1.6c-.47-3.29.84-7,1.5-10.26.49-2,2.05-3.56,3.16-5.31l2.54-3.38c4.91-6.54,10.29-13.81,15.07-20.4-5,6.39-10.53,13.57-15.48,20.08l-2.55,3.37c-1.15,1.76-2.8,3.39-3.27,5.51s-.95,4.13-1.29,6.22a10.7,10.7,0,0,0-.16,4.3,3.43,3.43,0,0,0,1.25,1.86c.65.48,1.47.42,2,.76a4.52,4.52,0,0,1,1.18,1.61A3.31,3.31,0,0,0,282,254a8.74,8.74,0,0,0,2.1.41c1.37.31,2.27,1.67,3.67,2,2.15.55,4.23-.64,5.88-1.88Z" style="fill:#af6152"></path><path d="M298.8,208.8c3.8,3.73,9.7,4,11.88,3.89a12.46,12.46,0,0,1-13.11-2.24Z" style="fill:#af6152"></path></g><path d="M309.32,186.61a45.91,45.91,0,0,1,3.6,5.1,23.82,23.82,0,0,1-6.78,9.87,20.79,20.79,0,0,1-10.2,4.81l-3.68-4.48Z"></path><path d="M283.25,159.36c6.67,1,9.92,2.52,13.76,8.1S305.38,180,307.7,182s2.68,4.22,2.21,5.89c-1.39,5.39-8.62,14-16.22,15.34-3.19.86-3.47-1.12-6.35-4.72s-5.67-6.51-8.35-9.65S275.54,167.29,283.25,159.36Z" style="fill:#407BFF"></path><path d="M283.25,159.36c6.67,1,9.92,2.52,13.76,8.1S305.38,180,307.7,182s2.68,4.22,2.21,5.89c-1.39,5.39-8.62,14-16.22,15.34-3.19.86-3.47-1.12-6.35-4.72s-5.67-6.51-8.35-9.65S275.54,167.29,283.25,159.36Z" style="opacity:0.2"></path><path d="M243,170.64a10.89,10.89,0,0,1,12.56,1.43,15.78,15.78,0,0,1,4.75,5.7s8.51-5.86,11.28-10.92a26.09,26.09,0,0,0,3-10,15.53,15.53,0,0,1-4.17-2.93c-2.08-2-1.91-4.22-3.09-4a12.91,12.91,0,0,1-.71,3.71c-.58,1.12-4.8,7-9.07,9.59S245,168,243,170.64Z" style="fill:#407BFF"></path><path d="M243,170.64a10.89,10.89,0,0,1,12.56,1.43,15.78,15.78,0,0,1,4.75,5.7s8.51-5.86,11.28-10.92a26.09,26.09,0,0,0,3-10,15.53,15.53,0,0,1-4.17-2.93c-2.08-2-1.91-4.22-3.09-4a12.91,12.91,0,0,1-.71,3.71c-.58,1.12-4.8,7-9.07,9.59S245,168,243,170.64Z" style="opacity:0.2"></path><path d="M243,170.64a77.21,77.21,0,0,1,1.9-10.89,16.52,16.52,0,0,1,2.3-5.7,8.88,8.88,0,0,0,.3-2.45,1.4,1.4,0,0,0-1.13.81c-.31.75-3.93,4-7.2,4.48-2.83,4-5.48,7-7.55,11.81,2.35-1.59,5-2.46,7.27-1.74A7.05,7.05,0,0,1,243,170.64Z" style="fill:#407BFF"></path><path d="M243,170.64a77.21,77.21,0,0,1,1.9-10.89,16.52,16.52,0,0,1,2.3-5.7,8.88,8.88,0,0,0,.3-2.45,1.4,1.4,0,0,0-1.13.81c-.31.75-3.93,4-7.2,4.48-2.83,4-5.48,7-7.55,11.81,2.35-1.59,5-2.46,7.27-1.74A7.05,7.05,0,0,1,243,170.64Z" style="opacity:0.2"></path></g><path d="M195,422c-.3,0-.45,2.8,1.25,4.11,2,1.52,8.13,4.35,15.39,3.09s11.13-3.67,13.94-6.21c1.85-1.67,3.78-3.14,5.74-4.64a14.51,14.51,0,0,1,2.89-1.95,23.48,23.48,0,0,1,3.29-1.09c2.4-.66,5-1.34,6.67-3.15,1.34-1.42,1.05-4.59,1-6.43Z" style="fill:#263238"></path><path d="M242.88,390.87a10.43,10.43,0,0,0,0,3.86,17.23,17.23,0,0,0,.88,2.36,21.13,21.13,0,0,1,1.52,7.14,4.25,4.25,0,0,1-.14,1.51,3.8,3.8,0,0,1-.85,1.3c-1.8,1.94-4.53,2.89-7,3.77a21,21,0,0,0-5.24,2.64c-4.08,3-6.48,7.75-11,10.27-3.41,1.92-7.44,3.6-11.4,3.75-5.64.21-12.07-1.3-13.64-3.81-1.95-3.1-3.43-6.74,4.75-10.93,1.55-.8,7-4.29,8.8-5.55a39.56,39.56,0,0,0,5.53-4.38,13.73,13.73,0,0,0,3.44-5.32c.67-2.22.41-4.57.4-6.85a6,6,0,0,1,.2-1.79c.6-1.87,3.33-1.86,5-1.93a16.07,16.07,0,0,1,6.26,1,4.56,4.56,0,0,1,1.79,1c1.09,1.13,1,2.91,1.47,4.41.13.4.56.86.88.6a.55.55,0,0,0,.17-.28c.58-1.53.24-3.43,1.31-4.66s3.9-1.55,4.94-2.89l.2-1.88a2.53,2.53,0,0,1,1.58,1.13,3.63,3.63,0,0,1,.42,1.92A30.47,30.47,0,0,1,242.88,390.87Z" style="fill:#455a64"></path><path d="M224.94,421.12a19.38,19.38,0,0,0,3.28-4h0s-8.44,6.74-12.53,4.25c-2.64-1.61-1.52-3.75-1.49-4.42s-9.22-5-11.72-5.16h0c-.68.4-1.24.75-1.6.92-6.41,2.86-7.12,6.21-5.85,10.33,1.58,2.51,7.36,4.91,14.65,4.59C214.44,427.43,221.63,424.06,224.94,421.12Z" style="fill:#37474f"></path><path d="M213.75,417.5a.54.54,0,0,0,.32-.13.49.49,0,0,0,0-.72c-1.55-1.7-8.69-5.59-12.5-5a.51.51,0,0,0-.43.58.5.5,0,0,0,.59.42c3.55-.54,10.35,3.33,11.58,4.68A.51.51,0,0,0,213.75,417.5Z" style="fill:#263238"></path><path d="M219.47,413.79a.44.44,0,0,0,.32-.13.49.49,0,0,0,0-.71c-1.54-1.7-8.69-5.59-12.5-5a.51.51,0,1,0,.16,1c3.55-.53,10.35,3.33,11.58,4.68A.5.5,0,0,0,219.47,413.79Z" style="fill:#263238"></path><path d="M224.75,409.94a.44.44,0,0,0,.32-.13.49.49,0,0,0,0-.71c-1.55-1.7-8.69-5.59-12.5-5a.51.51,0,1,0,.16,1c3.55-.54,10.35,3.33,11.58,4.68A.5.5,0,0,0,224.75,409.94Z" style="fill:#263238"></path><path d="M228.75,405.87a.44.44,0,0,0,.32-.13.49.49,0,0,0,0-.71c-1.54-1.71-8.71-5.59-12.5-5a.51.51,0,0,0-.43.57.51.51,0,0,0,.59.43c3.55-.54,10.35,3.33,11.58,4.67A.48.48,0,0,0,228.75,405.87Z" style="fill:#263238"></path><path d="M231.45,401.13a.56.56,0,0,0,.32-.13.51.51,0,0,0,0-.71c-2.13-2.42-9.58-5.6-13.38-5a.51.51,0,0,0,.15,1c3.43-.53,10.56,2.53,12.45,4.67A.52.52,0,0,0,231.45,401.13Z" style="fill:#263238"></path><path d="M282.93,435.37c.9,5.13,2.2,8.4,4.66,11.08s6.6,2.95,10.6,1.36,9-4.85,9.68-9.51.14-7.7-1.3-12.34Z" style="fill:#263238"></path><path d="M296.87,394.53c1.7-.17,1.46,3.91,2.64,10.82,1.28,7.47,5.11,13.19,6.69,19.15,1.81,6.82,1.71,10-.7,14.73s-12.06,10.57-17.68,5.36c-4.59-4.26-5.33-9.7-5.7-16.75-.38-7.28-.59-12.42-1.51-17.84-.88-5.18-3.73-10.55-2.33-11.38.19.74,2.25,6.62,3.2,6.49a10.22,10.22,0,0,0-.19-2,2.16,2.16,0,0,1,.28-1.76,7.75,7.75,0,0,1,2.66-1.48c1.63-.57,4.56-1.31,6.23-1.73.83-.21,1.67-.38,2.51-.52a7.89,7.89,0,0,1,2.16-.1,1.31,1.31,0,0,1,1,.56,1.71,1.71,0,0,1,.17.78,5.07,5.07,0,0,0,.37,1.4c.08.2.27.42.51.33a.44.44,0,0,0,.23-.47C297.32,399.3,297,395,296.87,394.53Z" style="fill:#455a64"></path><path d="M305.61,422.58c.27,1,2,7.49,0,9.05-2.15,1.69-4-3.34-4-3.34s-5.52-.51-13,3.76c.52,1-.31,4.79-2.54,4.4s-3.87-7.9-3.89-8c.38,6.75,1.22,12,5.67,16.14,5.62,5.21,15.28-.65,17.68-5.36s2.51-7.91.7-14.73C306,423.82,305.82,423.18,305.61,422.58Z" style="fill:#37474f"></path><path d="M288.44,432.28a1,1,0,0,0,.22-.09,23.87,23.87,0,0,1,12.86-3.36.69.69,0,0,0,.72-.51.5.5,0,0,0-.51-.58A25.07,25.07,0,0,0,288,431.33a.53.53,0,0,0-.19.77A.61.61,0,0,0,288.44,432.28Z" style="fill:#263238"></path><path d="M286.45,427a.56.56,0,0,0,.2-.08,29.59,29.59,0,0,1,14.4-3.75.71.71,0,0,0,.71-.53.52.52,0,0,0-.54-.57,30.59,30.59,0,0,0-15.21,4,.53.53,0,0,0-.22.77A.61.61,0,0,0,286.45,427Z" style="fill:#263238"></path><path d="M300.09,418.05a.68.68,0,0,0,.49-.45.49.49,0,0,0-.46-.61c-7.79-.92-14.91,3.64-15.21,3.84a.52.52,0,0,0-.18.77.67.67,0,0,0,.86.08c.07,0,7-4.47,14.23-3.61A.62.62,0,0,0,300.09,418.05Z" style="fill:#263238"></path><path d="M299.13,413.21a.68.68,0,0,0,.49-.44.48.48,0,0,0-.45-.62A23.11,23.11,0,0,0,283.66,416a.52.52,0,0,0-.14.77.68.68,0,0,0,.88,0,22,22,0,0,1,14.46-3.58A.8.8,0,0,0,299.13,413.21Z" style="fill:#263238"></path><path d="M298,407.78a.69.69,0,0,0,.48-.44.49.49,0,0,0-.44-.63c-8.05-1.18-15.3,3.81-15.61,4a.53.53,0,0,0-.15.78.68.68,0,0,0,.87.05c.07-.05,7.08-4.87,14.56-3.77A.7.7,0,0,0,298,407.78Z" style="fill:#263238"></path></g></g><g id="freepik--character-1--inject-68"><g id="freepik--character--inject-68"><g id="freepik--bottom--inject-68"><path d="M132.77,238.29c-1.25-25.73-3.7-42.77-8.09-49.08-6.11,9.75-20.9,28.8-20.9,28.8L93.07,242.16s3.65,23,6.49,31.86c-8.79,10-11.48,15.36-15.42,25.45-3,7.65-5.37,20.3-8.07,31.35-2,8.08-2.95,9-4.48,10.09-.88.65-2,1.38-2,1.38s-7.38,2.95-7,7.52c.27,3.3,2.64,7.17-.09,13.5-3.24,7.5-4.64,9.54-1.34,14.89,2.83,4.58,9,9.42,15.47,9.83a2.83,2.83,0,0,0,2.11-2.64c.06-3-1.3-4.18-2.19-7.4s0-8.68.67-12.34,3.17-8.17,5.14-11.42,4.35-7.06,7.7-11.81c4.05-5.75,33.83-48.53,38.66-57.54S134.07,265.15,132.77,238.29Z" style="fill:#ffa8a7"></path><path d="M91.77,241.31,98.49,273a67.87,67.87,0,0,0-11.91,17.48c-4.69,10.21-9.76,34.25-9.76,34.25a18.39,18.39,0,0,0,7.31,9.5c5.77,3.82,9.25,4.42,9.25,4.42s26.87-39,32.8-48.17,7.43-17.13,7.8-26.44-1.18-68.31-10-74.86S91.77,241.31,91.77,241.31Z" style="fill:#263238"></path><path d="M115.9,389.05A30.12,30.12,0,0,1,111.08,378c-1.41-6.62-1.07-13.46-.87-20.17.26-8.52,1.5-25.09,2.13-38.54,1.55-33.41,2.66-37.2,1.48-51.58s-3.88-36.27-3.88-36.27,6.69-2.93,12-15.33c2.64-6.18,6.66-17.59,3.37-26.66,0,0-3.91,6-21.44,5.25-14.47-.38-23-6-23-6C79.77,192.76,74,199,68.26,208.58c-2.22,3.73-5.53,10.07-3.88,22.72,1.15,8.88,2.62,13.6,6.93,27.68,4.49,14.64,12.1,39.08,12.1,39.08-1.94,11.38-3.5,14.5.47,35,1.3,6.71,3.83,13.18,6,19.64a54.49,54.49,0,0,1,2.85,11.36c.17,1.65.48,3.92-.15,5.49-1.11,2.76-4.15,5.21-3.82,8.42s4.29,6.34,6.3,8.79c4.23,5.19,6.31,12.16,11.6,16.27,3.75,2.9,8.67,3.95,13.41,3.84a10.23,10.23,0,0,0,5.21-1.26c1.07-.63,2.42-1,3-2.2a3.32,3.32,0,0,0-.12-3.3,7,7,0,0,0-2.27-1.9,42.7,42.7,0,0,1-4.61-3.32A31.07,31.07,0,0,1,115.9,389.05Z" style="fill:#ffa8a7"></path><path d="M128.07,197.25c-1.14-5.7-2.79-7.82-2.79-7.82s.5,11.95-11.7,12.59C102.7,202.59,87,193.41,79.1,192c-4.12,5.62-8.94,11.82-12.46,19-4.1,8.32-3.87,19.59-.71,31.19S82.51,297.8,82.51,297.8s-4.22,16.12,0,32.25,7.84,24.22,7.84,24.22a25.29,25.29,0,0,0,10.7,2.36,14.34,14.34,0,0,0,9.35-3.53s3.91-50,4.51-66.3-3.75-56-3.75-56S128.07,224.55,128.07,197.25Z" style="fill:#37474f"></path><path d="M90.91,323.84l-.12-16.47c0-5.32.26-10.81-.74-16.07s-3.17-10-4.75-14.91-3-10.26-4.16-15.47-2.13-10.39-3-15.63c-.8-4.94-1.4-9.91-2.18-14.85-.69-4.33-1.73-8.8-4.33-12.43a17.23,17.23,0,0,0-5.9-5c-.09.24-.18.47-.26.71a18.1,18.1,0,0,1,3.56,2.67c3,3,4.49,7,5.33,11.07.94,4.52,1.38,9.14,2.07,13.69C77.19,246,78,251,79,255.83s2.1,9.72,3.42,14.51,3,9.55,4.62,14.27a44.61,44.61,0,0,1,2,7.23,48.07,48.07,0,0,1,.58,7.49c.08,5.2.08,10.41.12,15.62l.06,7.79c0,2.64.11,5.3-.06,7.93-.21,3.37-1.05,8.13-4.24,9.95l.21.7.09.26A7.93,7.93,0,0,0,89,338.47C91.44,334.15,91,328.63,90.91,323.84Z" style="fill:#263238"></path><path d="M118.24,389.86a60.31,60.31,0,0,1-6.19-11.61c-1-3.4.4-5.11-1.72-6.42-2.24-1-6.45.56-9.08,2.35s1.87,9.3,3.2,11.73a38.47,38.47,0,0,0,7.75,9.95C114.2,393.85,116.46,392.2,118.24,389.86Z" style="fill:#407BFF"></path><path d="M118.24,389.86a60.31,60.31,0,0,1-6.19-11.61c-1-3.4.4-5.11-1.72-6.42-2.24-1-6.45.56-9.08,2.35s1.87,9.3,3.2,11.73a38.47,38.47,0,0,0,7.75,9.95C114.2,393.85,116.46,392.2,118.24,389.86Z" style="opacity:0.2"></path><path d="M126.18,406.7c-1.62,2.31-2.27,2.55-6.07,3.3-3.37.67-9.92-.94-14-3.32S98,399.11,96.31,395A35,35,0,0,0,89,384.52c-1.88-1.87-2.16-1.78-2.23-3.28s.45-1.25.47-2.46C100.16,388.23,113.42,397,126.18,406.7Z" style="fill:#ebebeb"></path><path d="M92.91,365.8a11.23,11.23,0,0,0,2.43,5.5c1,1.39,2,1.83,4.17,3.33s3.49,7.54,5.2,10.78c1.19,2.24,4.35,7.7,7,9.26a10.61,10.61,0,0,1,6.87-4.48,26.85,26.85,0,0,0,6.42,6.68c1.88,1.34,5.58,2.78,4.43,5.51-.65,1.55-1.12,3-4.41,4.6-2.4,1.15-9.28,1.69-14.1-.24-8.85-3.54-10.11-8.09-12.22-12.64-1.76-3.79-4.77-7.07-6.52-9.06-2.59-3-4-3-4.87-6.27-.52-2,.24-3.28,1.07-5.38s2.34-4.61,2.88-6.84c.41-1.7.41-2.42,1.43-2.55Z" style="fill:#407BFF"></path><path d="M127.27,402.55a3.23,3.23,0,0,0-2.25,3c-.16,1.29.14,2.48-1.49,3.21-2.3,1-4.4,1-7.53.62a25.86,25.86,0,0,1-9.61-2.87,22.24,22.24,0,0,1-8.31-8.63,66,66,0,0,0-6.3-10.43c-2.12-2.64-3.41-3.06-5.08-5.44,0,.44-.07.85-.12,1.18,2.36,3.16,3.94,3.92,6.69,7.71,1,1.36,2.7,4.86,4.31,7.88a25.62,25.62,0,0,0,9,9c3.52,2.17,11.41,3.4,15.32,2.61,5.31-1.07,7-2.87,7.79-4.17.59-.94.53-2.55.46-3.83C130,400.78,128.81,401.91,127.27,402.55Z" style="fill:#455a64"></path><path d="M111.45,395.21c1.23-2,5-4.78,7.58-4.39l.27.34c.25-.32,0-.63-.66-1.44-.5-.55-2-.41-4,.59-1.44.71-3.62,2.12-4.42,3.73A1.62,1.62,0,0,0,111.45,395.21Z" style="fill:#37474f"></path><path d="M107.58,391.48c1.44-1.83,6.15-5.32,8.69-4.65l.21.37c.28-.29.12-.62-.48-1.51-.44-.6-2.11-.31-4,.48-1.48.61-4.53,2.49-5.51,4A1.62,1.62,0,0,0,107.58,391.48Z" style="fill:#37474f"></path><path d="M105,387c1.53-1.76,6.54-5.09,9-4.29l.19.38c.3-.28.16-.61-.4-1.53-.42-.62-2.23-.35-4.19.35-1.51.54-4.64,2.27-5.69,3.74A1.61,1.61,0,0,0,105,387Z" style="fill:#37474f"></path><path d="M102.79,382.1c1.67-1.63,6.93-4.55,9.35-3.56l.15.39c.32-.26.22-.6-.26-1.55-.37-.66-2.19-.53-4.21,0-1.54.42-4.81,1.9-6,3.28A1.63,1.63,0,0,0,102.79,382.1Z" style="fill:#37474f"></path><path d="M78.88,368.27c.23-4.73,3.11-10.64,4.58-13,2.65-4.29,4.54-6.39,3-7.43l-.62.42c-3.78.74-7.11-1.42-8.73-1.8s-4.1,6-5.41,11a33,33,0,0,0-.76,12.38Z" style="fill:#407BFF"></path><g style="opacity:0.2"><path d="M78.88,368.27c.23-4.73,3.11-10.64,4.58-13,2.65-4.29,4.54-6.39,3-7.43l-.62.42c-3.78.74-7.11-1.42-8.73-1.8s-4.1,6-5.41,11a33,33,0,0,0-.76,12.38Z"></path></g><path d="M74.69,387.81c-.77.82-1.88,1.06-6.2-1.16-3.83-2-6.65-7.1-8.74-11.88s-1.17-11.09.06-14.75a29.9,29.9,0,0,0,.85-12.21c-.41-2.62-.58-2.92.38-3.74s1.85-1.48,1.85-1.48Z" style="fill:#ebebeb"></path><path d="M74.44,336.56a21.54,21.54,0,0,0-.54,5.11A6.88,6.88,0,0,0,75.27,346c.94,1.23-1.71,5.64-3,11.14-.93,3.83-1.5,10.68-.93,11.43,1.39-1,5.35-1.17,7.59-.68a76.48,76.48,0,0,0,.69,10.6c.64,4,1.46,4.69.26,6.27-.68.89-3.59,3-5.54,2.89-1.42-.09-6.85-2.56-10.87-9.59-3.75-6.55-2.32-11.41-1.23-17.44a33.56,33.56,0,0,0,.63-10.5c-.46-3.29-.9-5.57.07-7.53a11.21,11.21,0,0,1,4.26-3.38c2.92-1.41,4-1.52,5.57-3.62,1.33-1.82,2.45-1.33,2.45-1.33C75,334.75,74.84,335.46,74.44,336.56Z" style="fill:#407BFF"></path><path d="M77.89,383.58A6.73,6.73,0,0,0,74.57,386a2.82,2.82,0,0,1-2.83,1.56c-2.5-.34-5.1-2.71-6-3.72s-4.47-5.67-5.7-9.06a18.79,18.79,0,0,1-.79-11.56c1.19-4.84,1.84-6.53,1.81-11.35s-.82-6.07-.61-7.1a7.69,7.69,0,0,0-.82.87c-.2,1.8.88,3,.46,9.48a54.2,54.2,0,0,1-1.75,8.24,20.92,20.92,0,0,0,.93,12.1c1.6,4.34,4.73,9.83,10.23,12.48a9.8,9.8,0,0,0,9.13-.56,7.4,7.4,0,0,0,1.8-3.88C80.39,382.61,79.28,382.92,77.89,383.58Z" style="fill:#455a64"></path><path d="M70.8,369.55c2.91-1.75,7.89-1.16,8.08-.19l0,.5s.38,0,.41-1.33c-.19-.93-.8-1.55-3.49-1.64a11.92,11.92,0,0,0-5.22.95S70.22,369.24,70.8,369.55Z" style="fill:#37474f"></path><path d="M71,364.16c4.39-1.47,8.2-.09,8.42.56l-.07.31s.53,0,.55-1.33c-.12-.5-1-1.48-3.44-1.72a12.61,12.61,0,0,0-5.44.67S70.5,363.7,71,364.16Z" style="fill:#37474f"></path><path d="M71.53,359.69c5.32-2.15,9.11.25,9.28.92l-.12.31s.54.08.69-1.27c-.08-.52-.84-1.55-3.27-2a11.45,11.45,0,0,0-6.39.63S71.06,359.18,71.53,359.69Z" style="fill:#37474f"></path><path d="M72.6,354.41c4.91-1.32,10.06,1.24,10.23,1.92l-.14.26s.56.12.71-1.23c-.08-.51-1-1.13-3.27-2.05a11.93,11.93,0,0,0-7.12-.42S72.13,353.9,72.6,354.41Z" style="fill:#37474f"></path></g><path d="M111.58,133.72c13.32-8,21.61,3.68,28.43,10.9,2.71,1.36,16.23,11.92,17.28,13.68l19.13-16.23,7.22,7c-4.29,5.91-19.16,35.34-28.57,31.06-3.68-1.71-26.22-19.81-26.22-19.81Z" style="fill:#ffa8a7"></path><g id="freepik--Dumbbell--inject-68"><path d="M191.15,133.66l-1.3.21c1.78-1.13,6-3.6,7.92-4.19Z" style="fill:#37474f"></path><polygon points="191.71 123.97 194.72 130.95 197.77 129.68 194.05 121.04 191.71 123.97" style="fill:#263238"></polygon><polygon points="183.83 119.91 185.08 116.43 194.05 121.04 191.71 123.97 183.83 119.91" style="fill:#37474f"></polygon><polygon points="178.96 122.84 178.45 120.41 185.08 116.43 183.83 119.91 178.96 122.84" style="fill:#455a64"></polygon><polygon points="181.97 129.82 178.96 122.84 183.83 119.91 191.71 123.97 194.72 130.95 189.85 133.87 181.97 129.82" style="fill:#455a64"></polygon><polygon points="197.77 129.68 200.75 125.35 197.02 116.72 194.05 121.04 197.77 129.68" style="fill:#263238"></polygon><polygon points="185.08 116.43 194.05 121.04 197.02 116.72 188.05 112.1 185.08 116.43" style="fill:#37474f"></polygon><polygon points="178.45 120.41 181.43 116.08 188.05 112.1 185.08 116.43 178.45 120.41" style="fill:#455a64"></polygon><path d="M197.77,129.68c-1.17-2.93-2.36-5.86-3.6-8.76-2.29-1.19-6.79-3.5-9.1-4.66q-3.31,2-6.62,4.15,3.33-1.87,6.63-3.81c2.19,1.15,6.64,3.44,8.85,4.56.62,1.42,1.25,2.83,1.89,4.25S197.12,128.25,197.77,129.68Z" style="opacity:0.2"></path><polygon points="188.05 112.1 189.88 111.63 197.35 115.47 197.02 116.72 188.05 112.1" style="fill:#37474f"></polygon><polygon points="200.45 122.66 200.75 125.35 197.02 116.72 197.35 115.47 200.45 122.66" style="fill:#263238"></polygon><g style="opacity:0.2"><path d="M200.75,125.35c-1.14-2.95-2.36-5.86-3.6-8.77-3-1.54-6-3.06-9.1-4.48,2.93,1.67,5.9,3.23,8.89,4.78l-.07-.09C198.12,119.66,199.39,122.53,200.75,125.35Z"></path></g><polygon points="178.96 122.84 183.84 120.32 191.41 124.27 194.35 130.89 189.85 133.87 194.72 130.95 191.71 123.97 183.83 119.91 178.96 122.84" style="fill:#fff;opacity:0.1"></polygon><path d="M197.56,122.17a.14.14,0,0,1-.06-.07l-.21-.5a.22.22,0,0,1,0-.09.25.25,0,0,1,0-.09,1.19,1.19,0,0,1,.29-.3.49.49,0,0,1,.32-.09.44.44,0,0,1,.3.13.92.92,0,0,1,.26.39,1.67,1.67,0,0,1,.14.51,1.94,1.94,0,0,1,0,.59,2.61,2.61,0,0,1-.14.6,3,3,0,0,1-.31.59,1.38,1.38,0,0,1-.36.39.56.56,0,0,1-.33.13.44.44,0,0,1-.3-.12,1.18,1.18,0,0,1-.23-.34.86.86,0,0,1-.06-.23,1.94,1.94,0,0,1,0-.24l-.27.44.48,1.13a.16.16,0,0,1,0,.12.61.61,0,0,1,0,.12l-.34.49s-.05.06-.08.06,0,0,0,0l-.72-1.67a.34.34,0,0,1,0-.11.61.61,0,0,1,.05-.12l1.1-1.79s.05-.06.08-.06,0,0,.06,0l.26.6s0,0,0,.08a.41.41,0,0,0,0,.11.53.53,0,0,0,0,.13.28.28,0,0,0,0,.13c0,.11.11.17.19.18s.15,0,.22-.16a.71.71,0,0,0,.11-.21,1.74,1.74,0,0,0,.05-.22.74.74,0,0,0,0-.21.48.48,0,0,0,0-.18.48.48,0,0,0-.09-.13.18.18,0,0,0-.1,0h-.09l-.09,0Z" style="fill:#455a64"></path><path d="M176.9,146.74c-1.7,1.82-6-1.36-4.93-3.62l12.42-18.07c1.7-1.81,6,1.37,4.93,3.63Z" style="fill:#f0f0f0"></path><path d="M172,144.71c-1.09-3.79,4.43-1.73,4.95.44C178,148.94,172.49,146.88,172,144.71Z" style="fill:#fafafa"></path><path d="M179.5,143c2.64-2.56-3.45-7-4.93-3.62C176.28,137.52,180.6,140.7,179.5,143Z" style="fill:#e0e0e0"></path><path d="M186.3,133.07c2.64-2.57-3.45-7-4.93-3.62C183.08,127.63,187.39,130.81,186.3,133.07Z" style="fill:#e0e0e0"></path><path d="M181.66,139.82c2.51-3.58,5.63-6.61-.51-8.48-1.63-.53-3.53,4-4.41,4.85C178.44,134.38,182.76,137.56,181.66,139.82Z" style="fill:#e0e0e0"></path><path d="M172.17,161.27l-1.3.21c1.78-1.14,5.94-3.61,7.92-4.2Z" style="fill:#37474f"></path><polygon points="172.73 151.57 175.74 158.55 178.79 157.28 175.07 148.65 172.73 151.57" style="fill:#263238"></polygon><polygon points="164.85 147.52 166.1 144.03 175.07 148.65 172.73 151.57 164.85 147.52" style="fill:#37474f"></polygon><polygon points="159.98 150.45 159.47 148.02 166.1 144.03 164.85 147.52 159.98 150.45" style="fill:#455a64"></polygon><polygon points="162.99 157.43 159.98 150.45 164.85 147.52 172.73 151.57 175.74 158.55 170.87 161.48 162.99 157.43" style="fill:#455a64"></polygon><polygon points="178.79 157.28 181.77 152.96 178.04 144.32 175.07 148.65 178.79 157.28" style="fill:#263238"></polygon><polygon points="166.1 144.03 175.07 148.65 178.04 144.32 169.07 139.71 166.1 144.03" style="fill:#37474f"></polygon><polygon points="159.47 148.02 162.45 143.69 169.07 139.71 166.1 144.03 159.47 148.02" style="fill:#455a64"></polygon><path d="M178.79,157.28c-1.17-2.93-2.36-5.85-3.6-8.75-2.29-1.2-6.79-3.51-9.1-4.67-2.21,1.37-4.42,2.75-6.62,4.16,2.22-1.25,4.43-2.53,6.63-3.82,2.19,1.16,6.64,3.45,8.85,4.57q.93,2.13,1.89,4.24C177.47,154.45,178.14,155.86,178.79,157.28Z" style="opacity:0.2"></path><polygon points="169.07 139.71 170.9 139.23 178.37 143.07 178.04 144.32 169.07 139.71" style="fill:#37474f"></polygon><polygon points="181.47 150.26 181.77 152.96 178.04 144.32 178.37 143.07 181.47 150.26" style="fill:#263238"></polygon><g style="opacity:0.2"><path d="M181.77,153c-1.14-3-2.36-5.87-3.6-8.77-3-1.54-6-3.07-9.1-4.48,2.93,1.67,5.9,3.23,8.89,4.77l-.07-.08C179.14,147.27,180.41,150.14,181.77,153Z"></path></g><polygon points="159.98 150.45 164.87 147.93 172.43 151.88 175.37 158.49 170.87 161.48 175.74 158.55 172.73 151.57 164.85 147.52 159.98 150.45" style="fill:#fff;opacity:0.1"></polygon><path d="M178.58,149.77s0,0-.06-.07l-.21-.49a.22.22,0,0,1,0-.09.3.3,0,0,1,0-.1,1.33,1.33,0,0,1,.29-.29.57.57,0,0,1,.32-.1.56.56,0,0,1,.3.13,1.06,1.06,0,0,1,.26.39,1.73,1.73,0,0,1,.14.52,1.88,1.88,0,0,1,0,.58,2.43,2.43,0,0,1-.45,1.19,1.6,1.6,0,0,1-.36.4.63.63,0,0,1-.33.13.45.45,0,0,1-.29-.12.94.94,0,0,1-.24-.35.77.77,0,0,1-.06-.23,2,2,0,0,1,0-.23l-.28.44.49,1.13a.14.14,0,0,1,0,.11.22.22,0,0,1-.05.12l-.34.5a.09.09,0,0,1-.08.06.05.05,0,0,1-.05,0l-.72-1.66a.2.2,0,0,1,0-.11.43.43,0,0,1,0-.12l1.1-1.8a.21.21,0,0,1,.08-.06.07.07,0,0,1,.06,0l.26.61a.54.54,0,0,1,0,.08v.11s0,.09,0,.13a.21.21,0,0,0,0,.12c.05.12.11.18.19.18a.3.3,0,0,0,.22-.15.65.65,0,0,0,.11-.22.8.8,0,0,0,.05-.21.7.7,0,0,0,0-.21.58.58,0,0,0,0-.19.41.41,0,0,0-.09-.12.19.19,0,0,0-.1-.05h-.09l-.09,0Z" style="fill:#455a64"></path></g><path d="M178.77,144c.38,1.66,3.06,5.07,4.09,6.38,8.15-10.1,12.75-11.18,7.22-24.06-1.1-2.66-13.6,0-12.19,4.16-1.47.34-3.32,2.42-2.52,4.25a3.46,3.46,0,0,0-1,4.92,3.07,3.07,0,0,1,3.95-1.36C180.65,139.35,180.41,142.31,178.77,144Z" style="fill:#ffa8a7"></path><path d="M126.38,178.73c-.31,5.8-1.1,10.7-1.1,10.7-4,13.49-28.11,8.88-44.45-.76.08-3.4-1.18-6.34-2.83-9.41,30,9.92,43.22,5.12,48.37-.54Z" style="fill:#ffa8a7"></path><path d="M126.41,171.56c.12,2.36.08,4.84,0,7.17h0c-5.15,5.66-18.37,10.46-48.37.54A92.93,92.93,0,0,1,72.7,169c-4.09-10.19-4.74-13-5.44-20.64-.56-6.08,1.69-11,6.92-12.25l7.46-1.85,26.62-.7a14.23,14.23,0,0,0,6.15-1.31c2.74,3.24,10.36,12.14,14.84,19.07C131.77,155.26,134.09,164.7,126.41,171.56Z" style="fill:#37474f"></path><g id="freepik--arm--inject-68"><path d="M61.29,229.89c-1.29-1.41-3-2.65-3.5-4.57a3.28,3.28,0,0,1,.47-2.92,1.73,1.73,0,0,0,.35-.54,1.31,1.31,0,0,0,0-.52,3.6,3.6,0,0,1,.14-2.18A2.23,2.23,0,0,1,60.11,218a5.29,5.29,0,0,1,0-3.29c.43-1.25,1.72-2.25,2.57-.85a11.59,11.59,0,0,1,1,2.19,25.26,25.26,0,0,1,1.25,5.83c.21,2.07.7,7.92-2.5,8.2C62.18,230.08,61.47,230.09,61.29,229.89Z" style="fill:#f28f8f"></path><path d="M74.71,136c-1.82.2-7.72-.64-11.95,2.09-5.69,3.68-7.2,9.14-9.22,13.44-7.25,10-15.69,23.57-18,28.49-2.84,6.09-3.44,8.43,3.09,14.92,3.36,3.35,8,7.33,12.82,11.83,3.76,3.56,8.29,7.32,11.94,11a3.32,3.32,0,0,1,1.13,3.36,21.49,21.49,0,0,0-.64,2.48,20.11,20.11,0,0,0,.26,3.27,2.86,2.86,0,0,1-1.3,2.82,3.16,3.16,0,0,1-1.56.18,11.2,11.2,0,0,0,3,1.65,4.63,4.63,0,0,0,3.36-.12c1-.48,1.76-1.43,2.83-1.75.57-.17,1.19-.14,1.77-.3a3,3,0,0,0,1.53-1c.61-.77.86-1.87,1.72-2.34a12.18,12.18,0,0,1,1.33-.44,3,3,0,0,0,1.66-2.2,8.34,8.34,0,0,0-.07-2.86A69.73,69.73,0,0,0,76.87,213a7.18,7.18,0,0,0-1.22-2.32c-.57-.83-1.12-1.69-1.75-2.49-4.24-5.4-17.66-23.4-17.66-23.4l19-20.76S82.69,153.6,74.71,136Z" style="fill:#ffa8a7"></path><path d="M61.29,229.89c2.14,1.62,5.31,2.78,7.49.63a4.81,4.81,0,0,1,1.86-1.05c1.39-.16,2.73-.39,3.36-1.78a4.87,4.87,0,0,1,1.26-1.75c.69-.44,1.43-.38,1.91-.78a2.89,2.89,0,0,0,1-1.58c.46-3.24-.83-6.91-1.49-10.11-.48-2-2-3.52-3.11-5.24l-2.5-3.34c-4.85-6.45-10.15-13.62-14.86-20.11,4.95,6.29,10.38,13.38,15.26,19.8L74,207.9c1.13,1.73,2.76,3.34,3.22,5.43s.94,4.08,1.28,6.14a10.76,10.76,0,0,1,.15,4.24,3.41,3.41,0,0,1-1.23,1.83c-.64.48-1.45.42-1.94.75a4.49,4.49,0,0,0-1.16,1.59,3.23,3.23,0,0,1-1.56,1.49,8.88,8.88,0,0,1-2.07.4c-1.35.31-2.23,1.66-3.61,2-2.12.54-4.18-.63-5.81-1.86Z" style="fill:#f28f8f"></path><path d="M56.24,184.78c-3.75,3.67-9.57,4-11.72,3.83a12.3,12.3,0,0,0,12.93-2.21Z" style="fill:#f28f8f"></path></g><g id="freepik--head--inject-68"><path d="M109.19,122.3a19.55,19.55,0,0,0,2-1.6,18.78,18.78,0,0,0,6-10.7c.25-1.48.31-3,.66-4.47.6-2.5,1.63-4.85,2.21-7.36a17.84,17.84,0,0,0,0-8.06c-3-12.73-19.37-17.92-30.48-14.48-3,.93-9.75,3-11.35,9.51-3.29,1.76-5.5,5.84-5.77,11a21.72,21.72,0,0,0,3.77,13,90.14,90.14,0,0,0,8.19,10.39c1.39,1.55,2.82,3.65,4.49,4.89,1.42,1.06,3.84,1.2,5.58,1.37a26.11,26.11,0,0,0,5.52,0A20.8,20.8,0,0,0,109.19,122.3Z" style="fill:#263238"></path><path d="M85.71,129.26A106.46,106.46,0,0,0,85.22,117c-2.31,1.45-5.56.24-7.1-2.12-2-3-2.77-7.3-.16-9.42,3-2.43,5.82-1.72,8.07,2.19,3.19.35,4.47-1.63,1.72-5.94.16-3.84,5.7-4.35,5.09-14.35,7.83,3,17.32-4.19,22.09,4.07,3.67,8.33,7.37,30.18-2.16,34.07a21.89,21.89,0,0,1-7.28,1.52s0,2.13.09,4c0,1.48.93,2.17,2.68,2.56,1.92,2.19,6.56,6.1-3.85,7.74C91,143.46,83,135.82,81.64,134.29,85.2,133.06,85.54,132,85.71,129.26Z" style="fill:#ffa8a7"></path><path d="M99.72,114.83l5.66,1.39C104.4,120.16,98.66,118.63,99.72,114.83Z" style="fill:#b16668"></path><path d="M100.11,116.11a3.06,3.06,0,0,1,3.31,2.3,2.82,2.82,0,0,1-3.74-2.22A3,3,0,0,1,100.11,116.11Z" style="fill:#f28f8f"></path><path d="M114.74,97.67l-4.41-1C111,93.72,115.47,94.83,114.74,97.67Z" style="fill:#263238"></path><path d="M94.76,99.23l4.17-2C97.84,94.35,93.63,96.53,94.76,99.23Z" style="fill:#263238"></path><path d="M110.34,102.43c-.17,2.4,3.67,2.6,3.77.12S110.44,100,110.34,102.43Z" style="fill:#263238"></path><path d="M96.53,103c-.17,2.41,3.67,2.6,3.78.12S96.64,100.53,96.53,103Z" style="fill:#263238"></path><polygon points="112.71 108.77 106.52 111.94 104.54 99.61 112.71 108.77" style="fill:#f28f8f"></polygon><path d="M105.49,127c-8.27-.52-14.42-3.37-16.29-6.45,1.35,8.41,15,9,16.34,9Z" style="fill:#f28f8f"></path></g></g></g><g id="freepik--Icons--inject-68"><path id="freepik--Timer--inject-68" d="M467.23,87.3a13.47,13.47,0,1,0,7.36,21.49c-2.9-2.21-10.53-8.4-10.53-8.4Zm13.69,17.17a17.37,17.37,0,0,0-10.57-20.23l.44-1.81,1.86.45a.48.48,0,0,0,.57-.34l.77-3.18a.47.47,0,0,0-.35-.56l-8.22-2a.47.47,0,0,0-.57.35l-.77,3.18a.46.46,0,0,0,.35.56l1.86.45-.44,1.81a17.22,17.22,0,0,0-9.51,1.72l-.61-1,1.08-.66a.3.3,0,0,0,.11-.42l-1.13-1.86a.31.31,0,0,0-.42-.1l-4.8,2.91a.32.32,0,0,0-.1.43L451.59,86a.32.32,0,0,0,.43.1l1.08-.66.62,1a17.34,17.34,0,1,0,27.2,18ZM460.44,115.3A15.34,15.34,0,1,1,479,104,15.35,15.35,0,0,1,460.44,115.3Z" style="fill:#e0e0e0"></path><path id="freepik--Bolt--inject-68" d="M50.41,94.1l7.41,23.76L56.7,82.58,42,87.05,32.11,66.48,36.5,99.06ZM34.56,115.58l-13-7.75,14.37,16.41,5.88-7.85,12.81,10.43-13.56-19.1Z" style="fill:#e0e0e0"></path><path id="freepik--bolt--inject-68" d="M391.15,49.88,383,64.48l18.24-16-9.5-8.1,5.83-13.52-15.26,15.9Z" style="fill:#e0e0e0"></path><path id="freepik--Heart--inject-68" d="M120.34,62.44,123.87,58c2.69-3.35,8.66-12,6-19.82a8.75,8.75,0,0,0-11.07-5.53c-3.4,1.14-6.14,6.89-4.86,10.77-1.28-3.88-6.94-6.82-10.34-5.69a8.75,8.75,0,0,0-5.53,11.07C100.74,56.65,110.71,60,114.88,61Z" style="fill:#e0e0e0"></path><g id="freepik--Target--inject-68"><circle cx="250" cy="55.68" r="24.57" style="fill:#e0e0e0"></circle><circle cx="250" cy="55.68" r="18.99" style="fill:#fff"></circle><circle cx="250" cy="55.68" r="13.74" style="fill:#e0e0e0"></circle><circle cx="250" cy="55.68" r="8.56" style="fill:#fff"></circle><circle cx="250" cy="55.68" r="4.06" style="fill:#e0e0e0"></circle></g></g><g id="freepik--speech-bubble-2--inject-68"><g id="freepik--speech-bubble--inject-68"><g id="freepik--speech-bubble--inject-68"><path d="M356.46,56.24A24.81,24.81,0,0,1,367,71.11l.52,2.79a24.82,24.82,0,0,1-48.39,10.29l-.66-2.77a24.81,24.81,0,0,1,38-25.18Z" style="fill:#fff"></path><path d="M320.34,62.4a26.94,26.94,0,0,0,42.42,32.9L371,97a1.57,1.57,0,0,0,1.59-2.45l-4.9-6.79A26.94,26.94,0,0,0,320.34,62.4Zm36.12-6.16A24.81,24.81,0,0,1,367,71.11l.51,2.79a24.81,24.81,0,0,1-48.38,10.29l-.66-2.77a24.81,24.81,0,0,1,38-25.18Z" style="fill:#455a64"></path><path d="M356.46,56.24A24.81,24.81,0,0,1,367,71.11l.51,2.79a24.81,24.81,0,0,1-48.38,10.29l-.66-2.77a24.81,24.81,0,0,1,38-25.18Z" style="fill:#fff;opacity:0.7000000000000001"></path></g><path d="M332,71a3.33,3.33,0,0,0-1.35.24,2.29,2.29,0,0,0-.89.64,2.53,2.53,0,0,0-.52.92,5.5,5.5,0,0,0-.23,1.1,5.12,5.12,0,0,0-.06.9c0,.38,0,.77,0,1.18s0,.81,0,1.2,0,.69.05.91a4.47,4.47,0,0,0,.22,1.1,2.91,2.91,0,0,0,.53.92,2.21,2.21,0,0,0,.9.63A3.38,3.38,0,0,0,332,81a4.36,4.36,0,0,0,1.17-.15,2.73,2.73,0,0,0,1-.47,2.2,2.2,0,0,0,.64-.85,3,3,0,0,0,.24-1.27h-2a.62.62,0,0,1-.45-.2.65.65,0,0,1-.19-.48V74.91a.64.64,0,0,1,.19-.47.59.59,0,0,1,.45-.2h5.76a.56.56,0,0,1,.45.2.64.64,0,0,1,.19.47V78.1a6.94,6.94,0,0,1-.57,2.87,6.21,6.21,0,0,1-1.57,2.16A7.06,7.06,0,0,1,335,84.49,8.89,8.89,0,0,1,332,85a8.3,8.3,0,0,1-3.05-.53,7,7,0,0,1-2.3-1.46,6.5,6.5,0,0,1-1.46-2.16,7.64,7.64,0,0,1-.59-2.61c0-.68,0-1.41,0-2.19s0-1.53,0-2.25a7.18,7.18,0,0,1,.57-2.6A6.47,6.47,0,0,1,326.68,69,6.71,6.71,0,0,1,329,67.54a9,9,0,0,1,6.07,0,7.71,7.71,0,0,1,2.26,1.3,6.32,6.32,0,0,1,1.46,1.72,4.43,4.43,0,0,1,.57,1.79.46.46,0,0,1-.15.38.51.51,0,0,1-.38.16h-3.16a.7.7,0,0,1-.56-.22q-.21-.23-.39-.45a3.65,3.65,0,0,0-.91-.82A3.21,3.21,0,0,0,332,71Z" style="fill:#407BFF"></path><path d="M354.27,77.28c0,.25,0,.57,0,1s0,.71,0,1a5.88,5.88,0,0,1-.52,2.25,5.79,5.79,0,0,1-3.32,3.06,7.91,7.91,0,0,1-5.26,0,5.79,5.79,0,0,1-3.32-3.06,6.08,6.08,0,0,1-.53-2.25c0-.25,0-.57,0-1s0-.71,0-1a5.87,5.87,0,0,1,.5-2.25,5.7,5.7,0,0,1,1.33-1.83,6.33,6.33,0,0,1,2-1.25,7.75,7.75,0,0,1,5.26,0,6.44,6.44,0,0,1,2,1.25A5.64,5.64,0,0,1,353.76,75,6.07,6.07,0,0,1,354.27,77.28Zm-8.66,1.8a2.15,2.15,0,0,0,.65,1.48A2.2,2.2,0,0,0,350,79.08a7.35,7.35,0,0,0,0-.85,7.24,7.24,0,0,0,0-.85,2.18,2.18,0,0,0-.66-1.49,2.49,2.49,0,0,0-3.07,0,2.17,2.17,0,0,0-.65,1.49,7.08,7.08,0,0,0-.05.85A7.21,7.21,0,0,0,345.61,79.08Z" style="fill:#407BFF"></path><path d="M360.86,78.68a.64.64,0,0,1-.19.47.61.61,0,0,1-.45.2h-3a.62.62,0,0,1-.45-.2.64.64,0,0,1-.19-.47V67.93a.65.65,0,0,1,.19-.48.62.62,0,0,1,.45-.2h3a.61.61,0,0,1,.45.2.65.65,0,0,1,.19.48Zm0,5.36a.64.64,0,0,1-.19.47.57.57,0,0,1-.45.2h-3a.59.59,0,0,1-.45-.2.64.64,0,0,1-.19-.47V81.52a.64.64,0,0,1,.19-.47.59.59,0,0,1,.45-.2h3a.57.57,0,0,1,.45.2.64.64,0,0,1,.19.47Z" style="fill:#407BFF"></path></g></g><g id="freepik--speech-bubble-1--inject-68"><g id="freepik--speech-bubble--inject-68"><g id="freepik--speech-bubble--inject-68"><path d="M150.75,56.24a24.77,24.77,0,0,0-10.57,14.87l-.52,2.79a24.82,24.82,0,0,0,48.39,10.29l.65-2.77a24.81,24.81,0,0,0-37.95-25.18Z" style="fill:#fff"></path><path d="M149.6,54.48a27,27,0,0,0-10,33.29l-4.9,6.79A1.57,1.57,0,0,0,136.25,97l8.19-1.71a26.94,26.94,0,1,0,5.16-40.82Zm35.5,9.06a24.73,24.73,0,0,1,3.6,17.88l-.65,2.77A24.82,24.82,0,0,1,139.66,73.9l.52-2.79a24.82,24.82,0,0,1,44.92-7.57Z" style="fill:#455a64"></path><path d="M185.1,63.54a24.73,24.73,0,0,1,3.6,17.88l-.65,2.77A24.82,24.82,0,0,1,139.66,73.9l.52-2.79a24.82,24.82,0,0,1,44.92-7.57Z" style="fill:#fff;opacity:0.7000000000000001"></path></g><g id="freepik--Check--inject-68"><path d="M160.81,90.17A3.57,3.57,0,0,1,158.2,89l-8.1-8.65a3.58,3.58,0,1,1,5.22-4.89l5.26,5.62L173,65.33a3.58,3.58,0,1,1,5.61,4.44l-15,19A3.6,3.6,0,0,1,161,90.16Z" style="fill:#407BFF"></path></g></g></g></svg>